<?xml version="1.0" encoding="UTF-8"?>
<svg id="Layer_2" data-name="Layer 2" xmlns="http://www.w3.org/2000/svg" xmlns:xlink="http://www.w3.org/1999/xlink" viewBox="0 0 1024 1024">
  <defs>
    <style>
      .cls-1 {
        fill: #2569ac;
      }

      .cls-2, .cls-3, .cls-4, .cls-5, .cls-6, .cls-7, .cls-8, .cls-9, .cls-10, .cls-11, .cls-12, .cls-13, .cls-14, .cls-15, .cls-16, .cls-17 {
        fill: none;
      }

      .cls-18 {
        fill: #245fa3;
      }

      .cls-19 {
        fill: #2568ac;
      }

      .cls-20 {
        fill: #21478e;
      }

      .cls-21 {
        fill: #1f357d;
      }

      .cls-22 {
        fill: #23559a;
      }

      .cls-23 {
        fill: #2460a4;
      }

      .cls-24 {
        fill: #235298;
      }

      .cls-25 {
        fill: #245da1;
      }

      .cls-26 {
        fill: #23599e;
      }

      .cls-27 {
        fill: #2568ab;
      }

      .cls-28 {
        fill: #266eb1;
      }

      .cls-29 {
        fill: #256aae;
      }

      .cls-30 {
        fill: url(#linear-gradient-34);
      }

      .cls-30, .cls-31, .cls-32, .cls-33, .cls-34, .cls-35, .cls-36, .cls-3, .cls-37, .cls-38, .cls-4, .cls-5, .cls-6, .cls-7, .cls-8, .cls-9, .cls-10, .cls-11, .cls-12, .cls-13, .cls-14, .cls-15, .cls-39, .cls-40, .cls-41, .cls-16, .cls-17 {
        stroke-miterlimit: 10;
      }

      .cls-30, .cls-31, .cls-32, .cls-33, .cls-34, .cls-35, .cls-36, .cls-37, .cls-38, .cls-39, .cls-41 {
        stroke: #fff;
      }

      .cls-30, .cls-31, .cls-32, .cls-33, .cls-34, .cls-35, .cls-36, .cls-41 {
        stroke-width: .23px;
      }

      .cls-31 {
        fill: url(#linear-gradient-38);
      }

      .cls-32 {
        fill: url(#linear-gradient-36);
      }

      .cls-33 {
        fill: url(#linear-gradient-35);
      }

      .cls-34 {
        fill: url(#linear-gradient-33);
      }

      .cls-35 {
        fill: url(#linear-gradient-39);
      }

      .cls-36 {
        fill: url(#linear-gradient-37);
      }

      .cls-42 {
        fill: url(#linear-gradient-5);
      }

      .cls-43 {
        fill: url(#linear-gradient-4);
      }

      .cls-44 {
        fill: url(#linear-gradient-3);
      }

      .cls-45 {
        fill: url(#linear-gradient-2);
      }

      .cls-46 {
        fill: #1f337b;
      }

      .cls-3 {
        stroke: #253b7a;
        stroke-width: 15px;
      }

      .cls-47 {
        fill: #235197;
      }

      .cls-37 {
        fill: url(#linear-gradient-21);
      }

      .cls-37, .cls-38, .cls-4, .cls-39 {
        stroke-width: 2px;
      }

      .cls-38 {
        fill: url(#linear-gradient-19);
      }

      .cls-48 {
        fill: #203a81;
      }

      .cls-49 {
        fill: #266cb0;
      }

      .cls-50 {
        fill: #2461a5;
      }

      .cls-4 {
        stroke: #89795b;
      }

      .cls-51 {
        fill: url(#linear-gradient);
      }

      .cls-52 {
        fill: #245ca0;
      }

      .cls-5 {
        stroke: url(#linear-gradient-12);
      }

      .cls-6 {
        stroke: url(#linear-gradient-11);
      }

      .cls-7 {
        stroke: url(#linear-gradient-10);
      }

      .cls-8 {
        stroke: url(#linear-gradient-13);
      }

      .cls-9 {
        stroke: url(#linear-gradient-16);
      }

      .cls-10 {
        stroke: url(#linear-gradient-14);
      }

      .cls-11 {
        stroke: url(#linear-gradient-15);
      }

      .cls-53 {
        font-size: 22.8px;
      }

      .cls-53, .cls-54 {
        fill: #1f7ab3;
        font-family: Montserrat-Bold, Montserrat;
        font-weight: 700;
      }

      .cls-55 {
        fill: #203b83;
      }

      .cls-56 {
        fill: #256aad;
      }

      .cls-57 {
        fill: #d03c3b;
        font-family: Poppins-Regular, Poppins;
        font-size: 24.55px;
      }

      .cls-58 {
        fill: #2462a6;
      }

      .cls-59 {
        fill: #71a4ca;
      }

      .cls-60 {
        fill: #235499;
      }

      .cls-12 {
        stroke: url(#linear-gradient-7);
      }

      .cls-13 {
        stroke: url(#linear-gradient-6);
      }

      .cls-14 {
        stroke: url(#linear-gradient-9);
      }

      .cls-15 {
        stroke: url(#linear-gradient-8);
      }

      .cls-61 {
        clip-path: url(#clippath-1);
      }

      .cls-62 {
        clip-path: url(#clippath-3);
      }

      .cls-63 {
        clip-path: url(#clippath-4);
      }

      .cls-64 {
        clip-path: url(#clippath-2);
      }

      .cls-65 {
        clip-path: url(#clippath-5);
      }

      .cls-39, .cls-66 {
        fill: #253b7a;
      }

      .cls-67 {
        fill: #2567aa;
      }

      .cls-68 {
        letter-spacing: 0em;
      }

      .cls-69 {
        fill: #802926;
      }

      .cls-54 {
        font-size: 62.54px;
      }

      .cls-40 {
        fill: #293572;
        stroke: #fffdec;
      }

      .cls-70 {
        fill: #224c92;
      }

      .cls-71 {
        fill: #2564a8;
      }

      .cls-72 {
        fill: #fff;
      }

      .cls-73 {
        fill: #89795b;
      }

      .cls-74 {
        fill: #add15f;
      }

      .cls-75 {
        fill: #c2813a;
      }

      .cls-76 {
        fill: #fffef8;
      }

      .cls-77 {
        fill: #2564a7;
      }

      .cls-78 {
        fill: #2565a9;
      }

      .cls-79 {
        fill: #eddfca;
      }

      .cls-80 {
        fill: #1f61a0;
      }

      .cls-81 {
        letter-spacing: 0em;
      }

      .cls-82 {
        fill: #23579c;
      }

      .cls-83 {
        fill: url(#linear-gradient-40);
      }

      .cls-84 {
        fill: url(#linear-gradient-41);
      }

      .cls-85 {
        fill: url(#linear-gradient-20);
      }

      .cls-86 {
        fill: url(#linear-gradient-22);
      }

      .cls-87 {
        fill: url(#linear-gradient-23);
      }

      .cls-88 {
        fill: url(#linear-gradient-28);
      }

      .cls-89 {
        fill: url(#linear-gradient-25);
      }

      .cls-90 {
        fill: url(#linear-gradient-32);
      }

      .cls-91 {
        fill: url(#linear-gradient-31);
      }

      .cls-92 {
        fill: url(#linear-gradient-30);
      }

      .cls-93 {
        fill: url(#linear-gradient-27);
      }

      .cls-94 {
        fill: url(#linear-gradient-24);
      }

      .cls-95 {
        fill: url(#linear-gradient-26);
      }

      .cls-96 {
        fill: url(#linear-gradient-29);
      }

      .cls-41 {
        fill: #513f3f;
      }

      .cls-97 {
        fill: #753b1a;
      }

      .cls-98 {
        fill: #266caf;
      }

      .cls-99 {
        fill: #2566aa;
      }

      .cls-100 {
        fill: #266db0;
      }

      .cls-101 {
        fill: #1f367e;
      }

      .cls-102 {
        fill: #203e85;
      }

      .cls-103 {
        fill: #224a90;
      }

      .cls-104 {
        fill: #21438a;
      }

      .cls-105 {
        fill: #e2f7ff;
      }

      .cls-106 {
        fill: #23569b;
      }

      .cls-107 {
        fill: #245ea2;
      }

      .cls-108 {
        fill: #2563a7;
      }

      .cls-109 {
        fill: #203d84;
      }

      .cls-110 {
        fill: #203880;
      }

      .cls-111 {
        fill: #dd9d3b;
      }

      .cls-112 {
        letter-spacing: -.01em;
      }

      .cls-113 {
        letter-spacing: -.01em;
      }

      .cls-114 {
        fill: #224e94;
      }

      .cls-115 {
        letter-spacing: -.04em;
      }

      .cls-116 {
        letter-spacing: -.03em;
      }

      .cls-117 {
        letter-spacing: -.04em;
      }

      .cls-118 {
        fill: #21468c;
      }

      .cls-119 {
        fill: #23589d;
      }

      .cls-120 {
        letter-spacing: 0em;
      }

      .cls-121 {
        letter-spacing: 0em;
      }

      .cls-122 {
        letter-spacing: 0em;
      }

      .cls-123 {
        letter-spacing: 0em;
      }

      .cls-124 {
        letter-spacing: 0em;
      }

      .cls-125 {
        fill: #266bae;
      }

      .cls-126 {
        fill: #224d93;
      }

      .cls-127 {
        fill: #266fb2;
      }

      .cls-128 {
        fill: #214288;
      }

      .cls-129 {
        fill: #22498f;
      }

      .cls-130 {
        fill: #266baf;
      }

      .cls-131 {
        fill: #21458b;
      }

      .cls-132 {
        fill: #245b9f;
      }

      .cls-133 {
        fill: #225095;
      }

      .cls-134 {
        letter-spacing: .01em;
      }

      .cls-135 {
        clip-path: url(#clippath);
      }

      .cls-16 {
        stroke: url(#linear-gradient-18);
        stroke-width: 4px;
      }

      .cls-136 {
        fill: #214087;
      }

      .cls-17 {
        stroke: url(#linear-gradient-17);
        stroke-width: 12px;
      }
    </style>
    <clipPath id="clippath">
      <path class="cls-2" d="M409.1,289.66v-53.25l13.09-7.56c4.01,2.7,8.02,5.4,12.03,8.11v45.33"/>
    </clipPath>
    <clipPath id="clippath-1">
      <path class="cls-2" d="M434.22,282v-74.68h7.76v-7.18h5.63v-9.31h5.24v-15.13h2.33v14.94h8.73v8.73h6.6v6.35h10.88v63.34"/>
    </clipPath>
    <clipPath id="clippath-2">
      <path class="cls-2" d="M481.37,269.05v-78.37c6.21.05,12.43.1,18.64.15.13,25.56.26,51.11.39,76.67"/>
    </clipPath>
    <clipPath id="clippath-3">
      <path class="cls-2" d="M499.97,267.06v-107.66h6.79v-24.63h3.69v14.74h4.46v-31.42h3.1v30.84h4.85l5.04,2.91v5.24c3.17,1.45,6.34,2.91,9.5,4.36v105.62"/>
    </clipPath>
    <clipPath id="clippath-4">
      <path class="cls-2" d="M567.67,272.63v-70.41c-4.91-4.57-9.83-9.15-14.74-13.72-5.17,4.83-10.35,9.67-15.52,14.5v64.36"/>
    </clipPath>
    <clipPath id="clippath-5">
      <path class="cls-2" d="M567.67,272.82v-28.37l1.45-1.45v-16.15l6.4-5.09v-16h-3.93v-4.95h3.93l2.47-3.49,3.2,3.64,11.35.15v4.36h-11.49l-.15,14.55,13.68,4.95v10.11l10.91,4.29v6.26l11.93.15c0,9.17,0,18.33,0,27.5.98,1.04,1.96,2.08,2.95,3.11v13.29"/>
    </clipPath>
    <linearGradient id="linear-gradient" x1="648.01" y1="350.58" x2="527.06" y2="517.87" gradientUnits="userSpaceOnUse">
      <stop offset=".02" stop-color="#e3642a"/>
      <stop offset=".08" stop-color="#e57232"/>
      <stop offset=".22" stop-color="#eb8e42"/>
      <stop offset=".37" stop-color="#efa44f"/>
      <stop offset=".54" stop-color="#f2b358"/>
      <stop offset=".73" stop-color="#f4bd5d"/>
      <stop offset="1" stop-color="#f5c05f"/>
    </linearGradient>
    <linearGradient id="linear-gradient-2" x1="672.47" y1="523.91" x2="672.47" y2="506.6" gradientUnits="userSpaceOnUse">
      <stop offset="0" stop-color="#34853e"/>
      <stop offset="1" stop-color="#8bc167"/>
    </linearGradient>
    <linearGradient id="linear-gradient-3" x1="671.7" y1="614.67" x2="569.31" y2="507.19" gradientUnits="userSpaceOnUse">
      <stop offset="0" stop-color="#307034"/>
      <stop offset=".2" stop-color="#417d39"/>
      <stop offset=".53" stop-color="#75a34c"/>
      <stop offset="1" stop-color="#c8e16a"/>
    </linearGradient>
    <linearGradient id="linear-gradient-4" x1="320.27" y1="457.23" x2="594.51" y2="457.23" gradientUnits="userSpaceOnUse">
      <stop offset=".02" stop-color="#2eb0ca"/>
      <stop offset=".06" stop-color="#35b2ca"/>
      <stop offset=".22" stop-color="#53bdcc"/>
      <stop offset=".38" stop-color="#6bc5ce"/>
      <stop offset=".56" stop-color="#7ccbcf"/>
      <stop offset=".75" stop-color="#85cecf"/>
      <stop offset="1" stop-color="#89d0d0"/>
    </linearGradient>
    <linearGradient id="linear-gradient-5" x1="384.99" y1="599.37" x2="464.2" y2="542.86" gradientUnits="userSpaceOnUse">
      <stop offset="0" stop-color="#1e476f"/>
      <stop offset=".04" stop-color="#1e4972"/>
      <stop offset=".68" stop-color="#246c9c"/>
      <stop offset="1" stop-color="#277aad"/>
    </linearGradient>
    <linearGradient id="linear-gradient-6" x1="347.57" y1="546.85" x2="365.18" y2="546.85" xlink:href="#linear-gradient-4"/>
    <linearGradient id="linear-gradient-7" x1="359.36" y1="556.84" x2="380.28" y2="556.84" xlink:href="#linear-gradient-4"/>
    <linearGradient id="linear-gradient-8" x1="375.19" y1="570.09" x2="396.42" y2="570.09" xlink:href="#linear-gradient-4"/>
    <linearGradient id="linear-gradient-9" x1="400.64" y1="582.05" x2="410.99" y2="582.05" xlink:href="#linear-gradient-4"/>
    <linearGradient id="linear-gradient-10" x1="425.85" y1="584.39" x2="431.53" y2="584.39" xlink:href="#linear-gradient-4"/>
    <linearGradient id="linear-gradient-11" x1="440.67" y1="579.84" x2="460.37" y2="579.84" xlink:href="#linear-gradient-4"/>
    <linearGradient id="linear-gradient-12" x1="456.55" y1="570.74" x2="485.29" y2="570.74" xlink:href="#linear-gradient-4"/>
    <linearGradient id="linear-gradient-13" x1="337.75" y1="535.66" x2="499.27" y2="535.66" xlink:href="#linear-gradient-4"/>
    <linearGradient id="linear-gradient-14" x1="339.51" y1="550.85" x2="499.27" y2="550.85" xlink:href="#linear-gradient-4"/>
    <linearGradient id="linear-gradient-15" x1="343.27" y1="569.1" x2="507.77" y2="569.1" xlink:href="#linear-gradient-4"/>
    <linearGradient id="linear-gradient-16" x1="358.64" y1="588.38" x2="515.54" y2="588.38" xlink:href="#linear-gradient-4"/>
    <linearGradient id="linear-gradient-17" x1="513.26" y1="692.61" x2="513.26" y2="255.32" gradientUnits="userSpaceOnUse">
      <stop offset="0" stop-color="#edb439"/>
      <stop offset=".25" stop-color="#f8df8e"/>
      <stop offset=".28" stop-color="#efd17f"/>
      <stop offset=".37" stop-color="#d9ad57"/>
      <stop offset=".46" stop-color="#c9923a"/>
      <stop offset=".54" stop-color="#bf8228"/>
      <stop offset=".6" stop-color="#bc7d22"/>
      <stop offset=".67" stop-color="#bf8227"/>
      <stop offset=".77" stop-color="#c79037"/>
      <stop offset=".87" stop-color="#d5a852"/>
      <stop offset=".99" stop-color="#e9c877"/>
      <stop offset="1" stop-color="#ebcc7b"/>
    </linearGradient>
    <linearGradient id="linear-gradient-18" x1="513.26" y1="661.58" x2="513.26" y2="285.75" xlink:href="#linear-gradient-17"/>
    <linearGradient id="linear-gradient-19" x1="485.83" y1="184.17" x2="485.83" y2="479.17" gradientUnits="userSpaceOnUse">
      <stop offset="0" stop-color="#232b56"/>
      <stop offset=".18" stop-color="#283060"/>
      <stop offset=".53" stop-color="#323b73"/>
      <stop offset=".72" stop-color="#2a3875"/>
      <stop offset="1" stop-color="#243677"/>
    </linearGradient>
    <linearGradient id="linear-gradient-20" x1="473.65" y1="489.7" x2="586.26" y2="489.7" xlink:href="#linear-gradient-2"/>
    <linearGradient id="linear-gradient-21" x1="542.93" y1="607.1" x2="542.93" y2="337.16" gradientUnits="userSpaceOnUse">
      <stop offset="0" stop-color="#a82621"/>
      <stop offset=".48" stop-color="#a92722"/>
      <stop offset=".66" stop-color="#b02b26"/>
      <stop offset=".78" stop-color="#bc322e"/>
      <stop offset=".88" stop-color="#cd3c39"/>
      <stop offset=".97" stop-color="#e34948"/>
      <stop offset="1" stop-color="#ed4f4f"/>
    </linearGradient>
    <linearGradient id="linear-gradient-22" x1="494.18" y1="503.87" x2="591.5" y2="503.87" xlink:href="#linear-gradient-2"/>
    <linearGradient id="linear-gradient-23" x1="540.75" y1="488.26" x2="540.75" y2="337.12" gradientUnits="userSpaceOnUse">
      <stop offset="0" stop-color="#ea8039"/>
      <stop offset=".53" stop-color="#ea9630"/>
      <stop offset="1" stop-color="#eaae28"/>
    </linearGradient>
    <linearGradient id="linear-gradient-24" x1="572.24" y1="604.89" x2="572.24" y2="394.15" gradientUnits="userSpaceOnUse">
      <stop offset="0" stop-color="#a82621"/>
      <stop offset=".28" stop-color="#b62e2a"/>
      <stop offset=".81" stop-color="#dd4544"/>
      <stop offset="1" stop-color="#ed4f4f"/>
    </linearGradient>
    <linearGradient id="linear-gradient-25" x1="533.52" y1="345.08" x2="533.52" y2="486.31" gradientUnits="userSpaceOnUse">
      <stop offset="0" stop-color="#ea8039"/>
      <stop offset=".18" stop-color="#ea9331"/>
      <stop offset=".38" stop-color="#eaa22c"/>
      <stop offset=".63" stop-color="#eaab29"/>
      <stop offset="1" stop-color="#eaae28"/>
    </linearGradient>
    <linearGradient id="linear-gradient-26" x1="488.98" y1="480.13" x2="488.98" y2="285.82" gradientUnits="userSpaceOnUse">
      <stop offset="0" stop-color="#65b23e"/>
      <stop offset="1" stop-color="#8bc167"/>
    </linearGradient>
    <linearGradient id="linear-gradient-27" x1="520.08" y1="439.65" x2="520.08" y2="386.7" gradientUnits="userSpaceOnUse">
      <stop offset="0" stop-color="#ea8836"/>
      <stop offset=".1" stop-color="#ea9730"/>
      <stop offset=".21" stop-color="#eaa32c"/>
      <stop offset=".34" stop-color="#eaa72b"/>
      <stop offset=".45" stop-color="#eaab29"/>
      <stop offset=".74" stop-color="#eaae28"/>
      <stop offset="1" stop-color="#ea8039"/>
    </linearGradient>
    <linearGradient id="linear-gradient-28" x1="529.68" y1="391.56" x2="529.68" y2="377.46" xlink:href="#linear-gradient-27"/>
    <linearGradient id="linear-gradient-29" x1="526.41" y1="382.32" x2="526.41" y2="372.14" xlink:href="#linear-gradient-27"/>
    <linearGradient id="linear-gradient-30" x1="480.62" y1="219.5" x2="480.62" y2="451.97" gradientUnits="userSpaceOnUse">
      <stop offset="0" stop-color="#207dc1"/>
      <stop offset=".24" stop-color="#2162a5"/>
      <stop offset=".53" stop-color="#224a8c"/>
      <stop offset=".79" stop-color="#233b7c"/>
      <stop offset="1" stop-color="#243677"/>
    </linearGradient>
    <linearGradient id="linear-gradient-31" x1="486.33" y1="489.7" x2="586.27" y2="489.7" xlink:href="#linear-gradient-26"/>
    <linearGradient id="linear-gradient-32" x1="495.27" y1="477.62" x2="495.27" y2="315.95" xlink:href="#linear-gradient-2"/>
    <linearGradient id="linear-gradient-33" x1="642.88" y1="574.98" x2="642.88" y2="570.35" gradientUnits="userSpaceOnUse">
      <stop offset="0" stop-color="#c2813a"/>
      <stop offset=".22" stop-color="#cc8b3a"/>
      <stop offset=".63" stop-color="#d8983a"/>
      <stop offset="1" stop-color="#dd9d3b"/>
    </linearGradient>
    <linearGradient id="linear-gradient-34" x1="620.51" y1="557.98" x2="620.51" y2="550.63" xlink:href="#linear-gradient-33"/>
    <linearGradient id="linear-gradient-35" x1="630.16" y1="573.68" x2="630.16" y2="547.51" xlink:href="#linear-gradient-33"/>
    <linearGradient id="linear-gradient-36" x1="642.89" y1="583.78" x2="642.89" y2="561.56" xlink:href="#linear-gradient-33"/>
    <linearGradient id="linear-gradient-37" x1="617.79" y1="583.74" x2="617.79" y2="567.38" xlink:href="#linear-gradient-33"/>
    <linearGradient id="linear-gradient-38" x1="617.74" y1="576.55" x2="617.74" y2="574.52" xlink:href="#linear-gradient-33"/>
    <linearGradient id="linear-gradient-39" x1="959.59" y1="604.19" x2="984.94" y2="604.19" gradientTransform="translate(1558.2 -13.47) rotate(179.2) scale(1 -1)" xlink:href="#linear-gradient-33"/>
    <linearGradient id="linear-gradient-40" x1="578.75" y1="528.91" x2="578.75" y2="521.17" xlink:href="#linear-gradient-2"/>
    <linearGradient id="linear-gradient-41" x1="598.97" y1="526.18" x2="598.97" y2="512.38" xlink:href="#linear-gradient-2"/>
  </defs>
  <ellipse class="cls-72" cx="513.26" cy="473.97" rx="214.07" ry="212.64"/>
  <g>
    <g class="cls-135">
      <rect class="cls-46" x="409.1" y="228.85" width="25.12" height="1.01"/>
      <rect class="cls-21" x="409.1" y="229.86" width="25.12" height="1.01"/>
      <rect class="cls-101" x="409.1" y="230.87" width="25.12" height="1.01"/>
      <rect class="cls-110" x="409.1" y="231.89" width="25.12" height="1.01"/>
      <rect class="cls-48" x="409.1" y="232.9" width="25.12" height="1.01"/>
      <rect class="cls-55" x="409.1" y="233.92" width="25.12" height="1.01"/>
      <rect class="cls-109" x="409.1" y="234.93" width="25.12" height="1.01"/>
      <rect class="cls-102" x="409.1" y="235.94" width="25.12" height="1.01"/>
      <rect class="cls-136" x="409.1" y="236.96" width="25.12" height="1.01"/>
      <rect class="cls-128" x="409.1" y="237.97" width="25.12" height="1.01"/>
      <rect class="cls-104" x="409.1" y="238.98" width="25.12" height="1.01"/>
      <rect class="cls-131" x="409.1" y="240" width="25.12" height="1.01"/>
      <rect class="cls-118" x="409.1" y="241.01" width="25.12" height="1.01"/>
      <rect class="cls-20" x="409.1" y="242.02" width="25.12" height="1.01"/>
      <rect class="cls-129" x="409.1" y="243.04" width="25.12" height="1.01"/>
      <rect class="cls-103" x="409.1" y="244.05" width="25.12" height="1.01"/>
      <rect class="cls-70" x="409.1" y="245.06" width="25.12" height="1.01"/>
      <rect class="cls-126" x="409.1" y="246.08" width="25.12" height="1.01"/>
      <rect class="cls-114" x="409.1" y="247.09" width="25.12" height="1.01"/>
      <rect class="cls-133" x="409.1" y="248.1" width="25.12" height="1.01"/>
      <rect class="cls-47" x="409.1" y="249.12" width="25.12" height="1.01"/>
      <rect class="cls-24" x="409.1" y="250.13" width="25.12" height="1.01"/>
      <rect class="cls-60" x="409.1" y="251.14" width="25.12" height="1.01"/>
      <rect class="cls-22" x="409.1" y="252.16" width="25.12" height="1.01"/>
      <rect class="cls-106" x="409.1" y="253.17" width="25.12" height="1.01"/>
      <rect class="cls-82" x="409.1" y="254.19" width="25.12" height="1.01"/>
      <rect class="cls-119" x="409.1" y="255.2" width="25.12" height="1.01"/>
      <rect class="cls-26" x="409.1" y="256.21" width="25.12" height="1.01"/>
      <rect class="cls-132" x="409.1" y="257.23" width="25.12" height="1.01"/>
      <rect class="cls-52" x="409.1" y="258.24" width="25.12" height="1.01"/>
      <rect class="cls-25" x="409.1" y="259.25" width="25.12" height="1.01"/>
      <rect class="cls-107" x="409.1" y="260.27" width="25.12" height="1.01"/>
      <rect class="cls-18" x="409.1" y="261.28" width="25.12" height="1.01"/>
      <rect class="cls-23" x="409.1" y="262.29" width="25.12" height="1.01"/>
      <rect class="cls-50" x="409.1" y="263.31" width="25.12" height="1.01"/>
      <rect class="cls-58" x="409.1" y="264.32" width="25.12" height="1.01"/>
      <rect class="cls-108" x="409.1" y="265.33" width="25.12" height="1.01"/>
      <rect class="cls-77" x="409.1" y="266.35" width="25.12" height="1.01"/>
      <rect class="cls-71" x="409.1" y="267.36" width="25.12" height="1.01"/>
      <rect class="cls-78" x="409.1" y="268.37" width="25.12" height="1.01"/>
      <rect class="cls-99" x="409.1" y="269.39" width="25.12" height="1.01"/>
      <rect class="cls-67" x="409.1" y="270.4" width="25.12" height="1.01"/>
      <rect class="cls-27" x="409.1" y="271.41" width="25.12" height="1.01"/>
      <rect class="cls-19" x="409.1" y="272.43" width="25.12" height="1.01"/>
      <rect class="cls-1" x="409.1" y="273.44" width="25.12" height="1.01"/>
      <rect class="cls-56" x="409.1" y="274.46" width="25.12" height="1.01"/>
      <rect class="cls-29" x="409.1" y="275.47" width="25.12" height="1.01"/>
      <rect class="cls-125" x="409.1" y="276.48" width="25.12" height="1.01"/>
      <rect class="cls-130" x="409.1" y="277.5" width="25.12" height="1.01"/>
      <rect class="cls-98" x="409.1" y="278.51" width="25.12" height="1.01"/>
      <rect class="cls-49" x="409.1" y="279.52" width="25.12" height="1.01"/>
      <rect class="cls-100" x="409.1" y="280.54" width="25.12" height="1.01"/>
      <rect class="cls-100" x="409.1" y="281.55" width="25.12" height="1.01"/>
      <rect class="cls-28" x="409.1" y="282.56" width="25.12" height="1.01"/>
      <rect class="cls-28" x="409.1" y="283.58" width="25.12" height="1.01"/>
      <rect class="cls-28" x="409.1" y="284.59" width="25.12" height="1.01"/>
      <rect class="cls-127" x="409.1" y="285.6" width="25.12" height="1.01"/>
      <rect class="cls-127" x="409.1" y="286.62" width="25.12" height="1.01"/>
      <rect class="cls-127" x="409.1" y="287.63" width="25.12" height="1.01"/>
      <rect class="cls-127" x="409.1" y="288.64" width="25.12" height="1.01"/>
    </g>
    <g class="cls-61">
      <rect class="cls-46" x="434.22" y="175.7" width="47.16" height="1.77"/>
      <rect class="cls-21" x="434.22" y="177.47" width="47.16" height="1.77"/>
      <rect class="cls-101" x="434.22" y="179.24" width="47.16" height="1.77"/>
      <rect class="cls-110" x="434.22" y="181.01" width="47.16" height="1.77"/>
      <rect class="cls-48" x="434.22" y="182.79" width="47.16" height="1.77"/>
      <rect class="cls-55" x="434.22" y="184.56" width="47.16" height="1.77"/>
      <rect class="cls-109" x="434.22" y="186.33" width="47.16" height="1.77"/>
      <rect class="cls-102" x="434.22" y="188.1" width="47.16" height="1.77"/>
      <rect class="cls-136" x="434.22" y="189.87" width="47.16" height="1.77"/>
      <rect class="cls-128" x="434.22" y="191.64" width="47.16" height="1.77"/>
      <rect class="cls-104" x="434.22" y="193.42" width="47.16" height="1.77"/>
      <rect class="cls-131" x="434.22" y="195.19" width="47.16" height="1.77"/>
      <rect class="cls-118" x="434.22" y="196.96" width="47.16" height="1.77"/>
      <rect class="cls-20" x="434.22" y="198.73" width="47.16" height="1.77"/>
      <rect class="cls-129" x="434.22" y="200.5" width="47.16" height="1.77"/>
      <rect class="cls-103" x="434.22" y="202.27" width="47.16" height="1.77"/>
      <rect class="cls-70" x="434.22" y="204.04" width="47.16" height="1.77"/>
      <rect class="cls-126" x="434.22" y="205.82" width="47.16" height="1.77"/>
      <rect class="cls-114" x="434.22" y="207.59" width="47.16" height="1.77"/>
      <rect class="cls-133" x="434.22" y="209.36" width="47.16" height="1.77"/>
      <rect class="cls-47" x="434.22" y="211.13" width="47.16" height="1.77"/>
      <rect class="cls-24" x="434.22" y="212.9" width="47.16" height="1.77"/>
      <rect class="cls-60" x="434.22" y="214.67" width="47.16" height="1.77"/>
      <rect class="cls-22" x="434.22" y="216.45" width="47.16" height="1.77"/>
      <rect class="cls-106" x="434.22" y="218.22" width="47.16" height="1.77"/>
      <rect class="cls-82" x="434.22" y="219.99" width="47.16" height="1.77"/>
      <rect class="cls-119" x="434.22" y="221.76" width="47.16" height="1.77"/>
      <rect class="cls-26" x="434.22" y="223.53" width="47.16" height="1.77"/>
      <rect class="cls-132" x="434.22" y="225.3" width="47.16" height="1.77"/>
      <rect class="cls-52" x="434.22" y="227.08" width="47.16" height="1.77"/>
      <rect class="cls-25" x="434.22" y="228.85" width="47.16" height="1.77"/>
      <rect class="cls-107" x="434.22" y="230.62" width="47.16" height="1.77"/>
      <rect class="cls-18" x="434.22" y="232.39" width="47.16" height="1.77"/>
      <rect class="cls-23" x="434.22" y="234.16" width="47.16" height="1.77"/>
      <rect class="cls-50" x="434.22" y="235.93" width="47.16" height="1.77"/>
      <rect class="cls-58" x="434.22" y="237.71" width="47.16" height="1.77"/>
      <rect class="cls-108" x="434.22" y="239.48" width="47.16" height="1.77"/>
      <rect class="cls-77" x="434.22" y="241.25" width="47.16" height="1.77"/>
      <rect class="cls-71" x="434.22" y="243.02" width="47.16" height="1.77"/>
      <rect class="cls-78" x="434.22" y="244.79" width="47.16" height="1.77"/>
      <rect class="cls-99" x="434.22" y="246.56" width="47.16" height="1.77"/>
      <rect class="cls-67" x="434.22" y="248.34" width="47.16" height="1.77"/>
      <rect class="cls-27" x="434.22" y="250.11" width="47.16" height="1.77"/>
      <rect class="cls-19" x="434.22" y="251.88" width="47.16" height="1.77"/>
      <rect class="cls-1" x="434.22" y="253.65" width="47.16" height="1.77"/>
      <rect class="cls-56" x="434.22" y="255.42" width="47.16" height="1.77"/>
      <rect class="cls-29" x="434.22" y="257.19" width="47.16" height="1.77"/>
      <rect class="cls-125" x="434.22" y="258.97" width="47.16" height="1.77"/>
      <rect class="cls-130" x="434.22" y="260.74" width="47.16" height="1.77"/>
      <rect class="cls-98" x="434.22" y="262.51" width="47.16" height="1.77"/>
      <rect class="cls-49" x="434.22" y="264.28" width="47.16" height="1.77"/>
      <rect class="cls-100" x="434.22" y="266.05" width="47.16" height="1.77"/>
      <rect class="cls-100" x="434.22" y="267.82" width="47.16" height="1.77"/>
      <rect class="cls-28" x="434.22" y="269.59" width="47.16" height="1.77"/>
      <rect class="cls-28" x="434.22" y="271.37" width="47.16" height="1.77"/>
      <rect class="cls-28" x="434.22" y="273.14" width="47.16" height="1.77"/>
      <rect class="cls-127" x="434.22" y="274.91" width="47.16" height="1.77"/>
      <rect class="cls-127" x="434.22" y="276.68" width="47.16" height="1.77"/>
      <rect class="cls-127" x="434.22" y="278.45" width="47.16" height="1.77"/>
      <rect class="cls-127" x="434.22" y="280.22" width="47.16" height="1.77"/>
    </g>
    <g class="cls-64">
      <rect class="cls-46" x="481.37" y="190.68" width="19.03" height="1.31"/>
      <rect class="cls-21" x="481.37" y="191.99" width="19.03" height="1.31"/>
      <rect class="cls-101" x="481.37" y="193.3" width="19.03" height="1.31"/>
      <rect class="cls-110" x="481.37" y="194.6" width="19.03" height="1.31"/>
      <rect class="cls-48" x="481.37" y="195.91" width="19.03" height="1.31"/>
      <rect class="cls-55" x="481.37" y="197.21" width="19.03" height="1.31"/>
      <rect class="cls-109" x="481.37" y="198.52" width="19.03" height="1.31"/>
      <rect class="cls-102" x="481.37" y="199.83" width="19.03" height="1.31"/>
      <rect class="cls-136" x="481.37" y="201.13" width="19.03" height="1.31"/>
      <rect class="cls-128" x="481.37" y="202.44" width="19.03" height="1.31"/>
      <rect class="cls-104" x="481.37" y="203.74" width="19.03" height="1.31"/>
      <rect class="cls-131" x="481.37" y="205.05" width="19.03" height="1.31"/>
      <rect class="cls-118" x="481.37" y="206.36" width="19.03" height="1.31"/>
      <rect class="cls-20" x="481.37" y="207.66" width="19.03" height="1.31"/>
      <rect class="cls-129" x="481.37" y="208.97" width="19.03" height="1.31"/>
      <rect class="cls-103" x="481.37" y="210.27" width="19.03" height="1.31"/>
      <rect class="cls-70" x="481.37" y="211.58" width="19.03" height="1.31"/>
      <rect class="cls-126" x="481.37" y="212.89" width="19.03" height="1.31"/>
      <rect class="cls-114" x="481.37" y="214.19" width="19.03" height="1.31"/>
      <rect class="cls-133" x="481.37" y="215.5" width="19.03" height="1.31"/>
      <rect class="cls-47" x="481.37" y="216.8" width="19.03" height="1.31"/>
      <rect class="cls-24" x="481.37" y="218.11" width="19.03" height="1.31"/>
      <rect class="cls-60" x="481.37" y="219.42" width="19.03" height="1.31"/>
      <rect class="cls-22" x="481.37" y="220.72" width="19.03" height="1.31"/>
      <rect class="cls-106" x="481.37" y="222.03" width="19.03" height="1.31"/>
      <rect class="cls-82" x="481.37" y="223.34" width="19.03" height="1.31"/>
      <rect class="cls-119" x="481.37" y="224.64" width="19.03" height="1.31"/>
      <rect class="cls-26" x="481.37" y="225.95" width="19.03" height="1.31"/>
      <rect class="cls-132" x="481.37" y="227.25" width="19.03" height="1.31"/>
      <rect class="cls-52" x="481.37" y="228.56" width="19.03" height="1.31"/>
      <rect class="cls-25" x="481.37" y="229.87" width="19.03" height="1.31"/>
      <rect class="cls-107" x="481.37" y="231.17" width="19.03" height="1.31"/>
      <rect class="cls-18" x="481.37" y="232.48" width="19.03" height="1.31"/>
      <rect class="cls-23" x="481.37" y="233.78" width="19.03" height="1.31"/>
      <rect class="cls-50" x="481.37" y="235.09" width="19.03" height="1.31"/>
      <rect class="cls-58" x="481.37" y="236.4" width="19.03" height="1.31"/>
      <rect class="cls-108" x="481.37" y="237.7" width="19.03" height="1.31"/>
      <rect class="cls-77" x="481.37" y="239.01" width="19.03" height="1.31"/>
      <rect class="cls-71" x="481.37" y="240.31" width="19.03" height="1.31"/>
      <rect class="cls-78" x="481.37" y="241.62" width="19.03" height="1.31"/>
      <rect class="cls-99" x="481.37" y="242.93" width="19.03" height="1.31"/>
      <rect class="cls-67" x="481.37" y="244.23" width="19.03" height="1.31"/>
      <rect class="cls-27" x="481.37" y="245.54" width="19.03" height="1.31"/>
      <rect class="cls-19" x="481.37" y="246.85" width="19.03" height="1.31"/>
      <rect class="cls-1" x="481.37" y="248.15" width="19.03" height="1.31"/>
      <rect class="cls-56" x="481.37" y="249.46" width="19.03" height="1.31"/>
      <rect class="cls-29" x="481.37" y="250.76" width="19.03" height="1.31"/>
      <rect class="cls-125" x="481.37" y="252.07" width="19.03" height="1.31"/>
      <rect class="cls-130" x="481.37" y="253.38" width="19.03" height="1.31"/>
      <rect class="cls-98" x="481.37" y="254.68" width="19.03" height="1.31"/>
      <rect class="cls-49" x="481.37" y="255.99" width="19.03" height="1.31"/>
      <rect class="cls-100" x="481.37" y="257.29" width="19.03" height="1.31"/>
      <rect class="cls-100" x="481.37" y="258.6" width="19.03" height="1.31"/>
      <rect class="cls-28" x="481.37" y="259.91" width="19.03" height="1.31"/>
      <rect class="cls-28" x="481.37" y="261.21" width="19.03" height="1.31"/>
      <rect class="cls-28" x="481.37" y="262.52" width="19.03" height="1.31"/>
      <rect class="cls-127" x="481.37" y="263.82" width="19.03" height="1.31"/>
      <rect class="cls-127" x="481.37" y="265.13" width="19.03" height="1.31"/>
      <rect class="cls-127" x="481.37" y="266.44" width="19.03" height="1.31"/>
      <rect class="cls-127" x="481.37" y="267.74" width="19.03" height="1.31"/>
    </g>
    <g class="cls-62">
      <rect class="cls-46" x="499.97" y="118.09" width="37.44" height="2.48"/>
      <rect class="cls-21" x="499.97" y="120.57" width="37.44" height="2.48"/>
      <rect class="cls-101" x="499.97" y="123.05" width="37.44" height="2.48"/>
      <rect class="cls-110" x="499.97" y="125.54" width="37.44" height="2.48"/>
      <rect class="cls-48" x="499.97" y="128.02" width="37.44" height="2.48"/>
      <rect class="cls-55" x="499.97" y="130.5" width="37.44" height="2.48"/>
      <rect class="cls-109" x="499.97" y="132.99" width="37.44" height="2.48"/>
      <rect class="cls-102" x="499.97" y="135.47" width="37.44" height="2.48"/>
      <rect class="cls-136" x="499.97" y="137.95" width="37.44" height="2.48"/>
      <rect class="cls-128" x="499.97" y="140.43" width="37.44" height="2.48"/>
      <rect class="cls-104" x="499.97" y="142.92" width="37.44" height="2.48"/>
      <rect class="cls-131" x="499.97" y="145.4" width="37.44" height="2.48"/>
      <rect class="cls-118" x="499.97" y="147.88" width="37.44" height="2.48"/>
      <rect class="cls-20" x="499.97" y="150.37" width="37.44" height="2.48"/>
      <rect class="cls-129" x="499.97" y="152.85" width="37.44" height="2.48"/>
      <rect class="cls-103" x="499.97" y="155.33" width="37.44" height="2.48"/>
      <rect class="cls-70" x="499.97" y="157.81" width="37.44" height="2.48"/>
      <rect class="cls-126" x="499.97" y="160.3" width="37.44" height="2.48"/>
      <rect class="cls-114" x="499.97" y="162.78" width="37.44" height="2.48"/>
      <rect class="cls-133" x="499.97" y="165.26" width="37.44" height="2.48"/>
      <rect class="cls-47" x="499.97" y="167.75" width="37.44" height="2.48"/>
      <rect class="cls-24" x="499.97" y="170.23" width="37.44" height="2.48"/>
      <rect class="cls-60" x="499.97" y="172.71" width="37.44" height="2.48"/>
      <rect class="cls-22" x="499.97" y="175.19" width="37.44" height="2.48"/>
      <rect class="cls-106" x="499.97" y="177.68" width="37.44" height="2.48"/>
      <rect class="cls-82" x="499.97" y="180.16" width="37.44" height="2.48"/>
      <rect class="cls-119" x="499.97" y="182.64" width="37.44" height="2.48"/>
      <rect class="cls-26" x="499.97" y="185.13" width="37.44" height="2.48"/>
      <rect class="cls-132" x="499.97" y="187.61" width="37.44" height="2.48"/>
      <rect class="cls-52" x="499.97" y="190.09" width="37.44" height="2.48"/>
      <rect class="cls-25" x="499.97" y="192.57" width="37.44" height="2.48"/>
      <rect class="cls-107" x="499.97" y="195.06" width="37.44" height="2.48"/>
      <rect class="cls-18" x="499.97" y="197.54" width="37.44" height="2.48"/>
      <rect class="cls-23" x="499.97" y="200.02" width="37.44" height="2.48"/>
      <rect class="cls-50" x="499.97" y="202.51" width="37.44" height="2.48"/>
      <rect class="cls-58" x="499.97" y="204.99" width="37.44" height="2.48"/>
      <rect class="cls-108" x="499.97" y="207.47" width="37.44" height="2.48"/>
      <rect class="cls-77" x="499.97" y="209.95" width="37.44" height="2.48"/>
      <rect class="cls-71" x="499.97" y="212.44" width="37.44" height="2.48"/>
      <rect class="cls-78" x="499.97" y="214.92" width="37.44" height="2.48"/>
      <rect class="cls-99" x="499.97" y="217.4" width="37.44" height="2.48"/>
      <rect class="cls-67" x="499.97" y="219.89" width="37.44" height="2.48"/>
      <rect class="cls-27" x="499.97" y="222.37" width="37.44" height="2.48"/>
      <rect class="cls-19" x="499.97" y="224.85" width="37.44" height="2.48"/>
      <rect class="cls-1" x="499.97" y="227.33" width="37.44" height="2.48"/>
      <rect class="cls-56" x="499.97" y="229.82" width="37.44" height="2.48"/>
      <rect class="cls-29" x="499.97" y="232.3" width="37.44" height="2.48"/>
      <rect class="cls-125" x="499.97" y="234.78" width="37.44" height="2.48"/>
      <rect class="cls-130" x="499.97" y="237.27" width="37.44" height="2.48"/>
      <rect class="cls-98" x="499.97" y="239.75" width="37.44" height="2.48"/>
      <rect class="cls-49" x="499.97" y="242.23" width="37.44" height="2.48"/>
      <rect class="cls-100" x="499.97" y="244.71" width="37.44" height="2.48"/>
      <rect class="cls-100" x="499.97" y="247.2" width="37.44" height="2.48"/>
      <rect class="cls-28" x="499.97" y="249.68" width="37.44" height="2.48"/>
      <rect class="cls-28" x="499.97" y="252.16" width="37.44" height="2.48"/>
      <rect class="cls-28" x="499.97" y="254.65" width="37.44" height="2.48"/>
      <rect class="cls-127" x="499.97" y="257.13" width="37.44" height="2.48"/>
      <rect class="cls-127" x="499.97" y="259.61" width="37.44" height="2.48"/>
      <rect class="cls-127" x="499.97" y="262.09" width="37.44" height="2.48"/>
      <rect class="cls-127" x="499.97" y="264.58" width="37.44" height="2.48"/>
    </g>
    <g class="cls-63">
      <rect class="cls-46" x="537.41" y="188.49" width="30.26" height="1.4"/>
      <rect class="cls-21" x="537.41" y="189.9" width="30.26" height="1.4"/>
      <rect class="cls-101" x="537.41" y="191.3" width="30.26" height="1.4"/>
      <rect class="cls-110" x="537.41" y="192.7" width="30.26" height="1.4"/>
      <rect class="cls-48" x="537.41" y="194.1" width="30.26" height="1.4"/>
      <rect class="cls-55" x="537.41" y="195.5" width="30.26" height="1.4"/>
      <rect class="cls-109" x="537.41" y="196.91" width="30.26" height="1.4"/>
      <rect class="cls-102" x="537.41" y="198.31" width="30.26" height="1.4"/>
      <rect class="cls-136" x="537.41" y="199.71" width="30.26" height="1.4"/>
      <rect class="cls-128" x="537.41" y="201.11" width="30.26" height="1.4"/>
      <rect class="cls-104" x="537.41" y="202.52" width="30.26" height="1.4"/>
      <rect class="cls-131" x="537.41" y="203.92" width="30.26" height="1.4"/>
      <rect class="cls-118" x="537.41" y="205.32" width="30.26" height="1.4"/>
      <rect class="cls-20" x="537.41" y="206.72" width="30.26" height="1.4"/>
      <rect class="cls-129" x="537.41" y="208.13" width="30.26" height="1.4"/>
      <rect class="cls-103" x="537.41" y="209.53" width="30.26" height="1.4"/>
      <rect class="cls-70" x="537.41" y="210.93" width="30.26" height="1.4"/>
      <rect class="cls-126" x="537.41" y="212.33" width="30.26" height="1.4"/>
      <rect class="cls-114" x="537.41" y="213.73" width="30.26" height="1.4"/>
      <rect class="cls-133" x="537.41" y="215.14" width="30.26" height="1.4"/>
      <rect class="cls-47" x="537.41" y="216.54" width="30.26" height="1.4"/>
      <rect class="cls-24" x="537.41" y="217.94" width="30.26" height="1.4"/>
      <rect class="cls-60" x="537.41" y="219.34" width="30.26" height="1.4"/>
      <rect class="cls-22" x="537.41" y="220.75" width="30.26" height="1.4"/>
      <rect class="cls-106" x="537.41" y="222.15" width="30.26" height="1.4"/>
      <rect class="cls-82" x="537.41" y="223.55" width="30.26" height="1.4"/>
      <rect class="cls-119" x="537.41" y="224.95" width="30.26" height="1.4"/>
      <rect class="cls-26" x="537.41" y="226.35" width="30.26" height="1.4"/>
      <rect class="cls-132" x="537.41" y="227.76" width="30.26" height="1.4"/>
      <rect class="cls-52" x="537.41" y="229.16" width="30.26" height="1.4"/>
      <rect class="cls-25" x="537.41" y="230.56" width="30.26" height="1.4"/>
      <rect class="cls-107" x="537.41" y="231.96" width="30.26" height="1.4"/>
      <rect class="cls-18" x="537.41" y="233.37" width="30.26" height="1.4"/>
      <rect class="cls-23" x="537.41" y="234.77" width="30.26" height="1.4"/>
      <rect class="cls-50" x="537.41" y="236.17" width="30.26" height="1.4"/>
      <rect class="cls-58" x="537.41" y="237.57" width="30.26" height="1.4"/>
      <rect class="cls-108" x="537.41" y="238.98" width="30.26" height="1.4"/>
      <rect class="cls-77" x="537.41" y="240.38" width="30.26" height="1.4"/>
      <rect class="cls-71" x="537.41" y="241.78" width="30.26" height="1.4"/>
      <rect class="cls-78" x="537.41" y="243.18" width="30.26" height="1.4"/>
      <rect class="cls-99" x="537.41" y="244.58" width="30.26" height="1.4"/>
      <rect class="cls-67" x="537.41" y="245.99" width="30.26" height="1.4"/>
      <rect class="cls-27" x="537.41" y="247.39" width="30.26" height="1.4"/>
      <rect class="cls-19" x="537.41" y="248.79" width="30.26" height="1.4"/>
      <rect class="cls-1" x="537.41" y="250.19" width="30.26" height="1.4"/>
      <rect class="cls-56" x="537.41" y="251.6" width="30.26" height="1.4"/>
      <rect class="cls-29" x="537.41" y="253" width="30.26" height="1.4"/>
      <rect class="cls-125" x="537.41" y="254.4" width="30.26" height="1.4"/>
      <rect class="cls-130" x="537.41" y="255.8" width="30.26" height="1.4"/>
      <rect class="cls-98" x="537.41" y="257.2" width="30.26" height="1.4"/>
      <rect class="cls-49" x="537.41" y="258.61" width="30.26" height="1.4"/>
      <rect class="cls-100" x="537.41" y="260.01" width="30.26" height="1.4"/>
      <rect class="cls-100" x="537.41" y="261.41" width="30.26" height="1.4"/>
      <rect class="cls-28" x="537.41" y="262.81" width="30.26" height="1.4"/>
      <rect class="cls-28" x="537.41" y="264.22" width="30.26" height="1.4"/>
      <rect class="cls-28" x="537.41" y="265.62" width="30.26" height="1.4"/>
      <rect class="cls-127" x="537.41" y="267.02" width="30.26" height="1.4"/>
      <rect class="cls-127" x="537.41" y="268.42" width="30.26" height="1.4"/>
      <rect class="cls-127" x="537.41" y="269.83" width="30.26" height="1.4"/>
      <rect class="cls-127" x="537.41" y="271.23" width="30.26" height="1.4"/>
    </g>
    <g class="cls-65">
      <rect class="cls-46" x="567.67" y="197.31" width="52.7" height="1.54"/>
      <rect class="cls-21" x="567.67" y="198.85" width="52.7" height="1.54"/>
      <rect class="cls-101" x="567.67" y="200.39" width="52.7" height="1.54"/>
      <rect class="cls-110" x="567.67" y="201.93" width="52.7" height="1.54"/>
      <rect class="cls-48" x="567.67" y="203.47" width="52.7" height="1.54"/>
      <rect class="cls-55" x="567.67" y="205.01" width="52.7" height="1.54"/>
      <rect class="cls-109" x="567.67" y="206.55" width="52.7" height="1.54"/>
      <rect class="cls-102" x="567.67" y="208.09" width="52.7" height="1.54"/>
      <rect class="cls-136" x="567.67" y="209.63" width="52.7" height="1.54"/>
      <rect class="cls-128" x="567.67" y="211.16" width="52.7" height="1.54"/>
      <rect class="cls-104" x="567.67" y="212.7" width="52.7" height="1.54"/>
      <rect class="cls-131" x="567.67" y="214.24" width="52.7" height="1.54"/>
      <rect class="cls-118" x="567.67" y="215.78" width="52.7" height="1.54"/>
      <rect class="cls-20" x="567.67" y="217.32" width="52.7" height="1.54"/>
      <rect class="cls-129" x="567.67" y="218.86" width="52.7" height="1.54"/>
      <rect class="cls-103" x="567.67" y="220.4" width="52.7" height="1.54"/>
      <rect class="cls-70" x="567.67" y="221.94" width="52.7" height="1.54"/>
      <rect class="cls-126" x="567.67" y="223.48" width="52.7" height="1.54"/>
      <rect class="cls-114" x="567.67" y="225.02" width="52.7" height="1.54"/>
      <rect class="cls-133" x="567.67" y="226.56" width="52.7" height="1.54"/>
      <rect class="cls-47" x="567.67" y="228.09" width="52.7" height="1.54"/>
      <rect class="cls-24" x="567.67" y="229.63" width="52.7" height="1.54"/>
      <rect class="cls-60" x="567.67" y="231.17" width="52.7" height="1.54"/>
      <rect class="cls-22" x="567.67" y="232.71" width="52.7" height="1.54"/>
      <rect class="cls-106" x="567.67" y="234.25" width="52.7" height="1.54"/>
      <rect class="cls-82" x="567.67" y="235.79" width="52.7" height="1.54"/>
      <rect class="cls-119" x="567.67" y="237.33" width="52.7" height="1.54"/>
      <rect class="cls-26" x="567.67" y="238.87" width="52.7" height="1.54"/>
      <rect class="cls-132" x="567.67" y="240.41" width="52.7" height="1.54"/>
      <rect class="cls-52" x="567.67" y="241.95" width="52.7" height="1.54"/>
      <rect class="cls-25" x="567.67" y="243.49" width="52.7" height="1.54"/>
      <rect class="cls-107" x="567.67" y="245.02" width="52.7" height="1.54"/>
      <rect class="cls-18" x="567.67" y="246.56" width="52.7" height="1.54"/>
      <rect class="cls-23" x="567.67" y="248.1" width="52.7" height="1.54"/>
      <rect class="cls-50" x="567.67" y="249.64" width="52.7" height="1.54"/>
      <rect class="cls-58" x="567.67" y="251.18" width="52.7" height="1.54"/>
      <rect class="cls-108" x="567.67" y="252.72" width="52.7" height="1.54"/>
      <rect class="cls-77" x="567.67" y="254.26" width="52.7" height="1.54"/>
      <rect class="cls-71" x="567.67" y="255.8" width="52.7" height="1.54"/>
      <rect class="cls-78" x="567.67" y="257.34" width="52.7" height="1.54"/>
      <rect class="cls-99" x="567.67" y="258.88" width="52.7" height="1.54"/>
      <rect class="cls-67" x="567.67" y="260.42" width="52.7" height="1.54"/>
      <rect class="cls-27" x="567.67" y="261.95" width="52.7" height="1.54"/>
      <rect class="cls-19" x="567.67" y="263.49" width="52.7" height="1.54"/>
      <rect class="cls-1" x="567.67" y="265.03" width="52.7" height="1.54"/>
      <rect class="cls-56" x="567.67" y="266.57" width="52.7" height="1.54"/>
      <rect class="cls-29" x="567.67" y="268.11" width="52.7" height="1.54"/>
      <rect class="cls-125" x="567.67" y="269.65" width="52.7" height="1.54"/>
      <rect class="cls-130" x="567.67" y="271.19" width="52.7" height="1.54"/>
      <rect class="cls-98" x="567.67" y="272.73" width="52.7" height="1.54"/>
      <rect class="cls-49" x="567.67" y="274.27" width="52.7" height="1.54"/>
      <rect class="cls-100" x="567.67" y="275.81" width="52.7" height="1.54"/>
      <rect class="cls-100" x="567.67" y="277.35" width="52.7" height="1.54"/>
      <rect class="cls-28" x="567.67" y="278.88" width="52.7" height="1.54"/>
      <rect class="cls-28" x="567.67" y="280.42" width="52.7" height="1.54"/>
      <rect class="cls-28" x="567.67" y="281.96" width="52.7" height="1.54"/>
      <rect class="cls-127" x="567.67" y="283.5" width="52.7" height="1.54"/>
      <rect class="cls-127" x="567.67" y="285.04" width="52.7" height="1.54"/>
      <rect class="cls-127" x="567.67" y="286.58" width="52.7" height="1.54"/>
      <rect class="cls-127" x="567.67" y="288.12" width="52.7" height="1.54"/>
    </g>
    <rect class="cls-59" x="413.36" y="240.19" width="5.63" height="5.63"/>
    <rect class="cls-59" x="413.36" y="252.9" width="5.63" height="5.63"/>
    <rect class="cls-59" x="413.36" y="265.61" width="5.63" height="5.63"/>
    <rect class="cls-59" x="424.03" y="252.9" width="5.63" height="5.63"/>
    <rect class="cls-59" x="424.03" y="240.19" width="5.63" height="5.63"/>
    <rect class="cls-59" x="469.62" y="210.32" width="5.18" height="5.18"/>
    <rect class="cls-59" x="485.4" y="198.88" width="11.67" height="3.73"/>
    <rect class="cls-59" x="485.4" y="205.57" width="11.67" height="3.73"/>
    <rect class="cls-59" x="485.4" y="212.36" width="11.67" height="3.73"/>
    <rect class="cls-59" x="485.4" y="219.05" width="11.67" height="3.73"/>
    <rect class="cls-59" x="485.4" y="225.72" width="11.67" height="3.73"/>
    <rect class="cls-59" x="485.4" y="232.75" width="11.67" height="3.73"/>
    <rect class="cls-59" x="469.62" y="222.54" width="5.18" height="5.18"/>
    <rect class="cls-59" x="469.62" y="236.27" width="5.18" height="5.18"/>
    <rect class="cls-59" x="469.62" y="246.6" width="5.18" height="5.18"/>
    <rect class="cls-59" x="505.67" y="165.9" width="5.18" height="5.18"/>
    <rect class="cls-59" x="559.34" y="206.32" width="3.32" height="6.97"/>
    <rect class="cls-59" x="543.15" y="206.32" width="3.32" height="6.97"/>
    <rect class="cls-59" x="543.15" y="216.91" width="3.32" height="6.97"/>
    <rect class="cls-59" x="559.34" y="216.02" width="3.32" height="6.97"/>
    <rect class="cls-59" x="559.34" y="225.71" width="3.32" height="6.97"/>
    <rect class="cls-59" x="559.34" y="236.53" width="3.32" height="6.97"/>
    <rect class="cls-59" x="505.67" y="178.12" width="5.18" height="5.18"/>
    <rect class="cls-59" x="505.67" y="188.49" width="5.18" height="5.18"/>
    <rect class="cls-59" x="505.67" y="210.77" width="5.18" height="5.18"/>
    <rect class="cls-59" x="593.95" y="249.26" width="6.22" height="6.72"/>
    <rect class="cls-59" x="572.86" y="247.23" width="5.28" height="5.09"/>
    <rect class="cls-59" x="572.86" y="239.74" width="5.28" height="5.09"/>
    <rect class="cls-59" x="584.74" y="229.4" width="4.82" height="4.64"/>
    <rect class="cls-59" x="584.74" y="236.52" width="4.82" height="4.64"/>
    <rect class="cls-59" x="584.74" y="244.21" width="4.82" height="4.64"/>
    <rect class="cls-59" x="584.74" y="251.86" width="4.82" height="4.64"/>
    <rect class="cls-59" x="584.74" y="259.52" width="4.82" height="4.64"/>
    <rect class="cls-59" x="505.67" y="198.82" width="5.18" height="5.18"/>
    <rect class="cls-59" x="438.7" y="213.63" width="16.68" height="40.53"/>
    <rect class="cls-80" x="443.29" y="213.63" width="1" height="40.53"/>
    <rect class="cls-80" x="448.89" y="213.63" width="1" height="40.53"/>
    <rect class="cls-80" x="438.7" y="222.04" width="16.68" height="1"/>
    <rect class="cls-80" x="438.7" y="232.84" width="16.68" height="1"/>
    <rect class="cls-80" x="438.7" y="243.31" width="16.68" height="1"/>
  </g>
  <path class="cls-51" d="M533.52,284.98c-4.7,2.43-54.96,29.03-73.94,68.7-5.09,10.63-13.98,29.09-10.44,52.41,1.38,9.11,4.26,16.35,6.58,21.17-.17-.95-.39-2.35-.57-4.07h0c-.4-2.39-1.69-11.3,1.41-22.63.37-1.37,1.73-6.11,4.81-12.08,13.15-25.43,38.16-35.14,41.64-36.44.01,0,.04-.01.05-.02,41.85-15.5,97.81,8.52,104.31,41.83,3.51,17.98-6.77,41.92-20.1,57.28-2.48,2.86-4.58,4.86-5.62,5.82-24.38,22.57-56.45,22.1-70.12,21.9-8.33-.12-20.25-1.09-34.31-5.09.63,21.69,4.69,51.46,19.43,83.04,9.26,19.83,22.3,47.55,52.81,67.58,9.36,6.15,26.86,15.78,52.48,19.48,4.49-2.46,98.35-56.12,101.89-164.61,2.13-65.26-29.24-131.72-85.77-167.39-32.68-20.62-65.27-25.61-84.56-26.91Z"/>
  <g>
    <path class="cls-45" d="M665.5,523.82c-.65-.12-1.79-.42-2.94-1.21-.17-.12-1.36-.97-2.13-2.41-1.47-2.77-.35-5.76.46-7.93.24-.65,1.01-2.56,2.84-4.35,1.05-1.03,1.52-1.1,1.67-1.11,2.27-.21,4.23,5.17,4.32,5.42.07.01.19.02.32,0,.2-.05.39-.14.46-.29.19-.38.56-1.69,1.12-1.99.56-.3.88-.6.98-1.45.1-.85,1.74-2.59,4.44-1.55,1.34,1.04.82,1.9.82,1.9,0,0,1.91,1.11,2.05,1.45.14.34-.1,1.09.29,1.19.39.11,1.74,1.32,2.03,1.82,0,0,.63,2.23-.29,2.96s.29.86.29.86c0,0,3.12.64,2.97,3.66-.15,3.01-3.17,2.94-3.17,2.94l-1.4.19s-1.85-1.1-2.15-1.75c-.3-.65-.44-2.7-.44-2.7l-2.43-.47s-1.51.42-2.45.58c-.94.17-1.89-.33-1.89-.33-.23.61-.78,1.79-2.03,2.85-1.47,1.24-3.07,1.62-3.76,1.74Z"/>
    <path class="cls-76" d="M685.47,519.44c-.41-1.38-1.67-2.61-3.32-2.77.16-.24.36-.46.48-.71.15-.3.49-1.09,0-1.22-.51-.13-.55.57-.67.85-.39.89-.96,1.05-1.78,1.48-.43.23-.35.51-.52.88-.68,1.53-2.79,1.67-3.83.4v-1.46s1.67-1.51,1.67-1.51c.27-.3-.03-.74-.45-.54-.36.17-.83.85-1.21,1.06v-2.27c0-.11-.22-.31-.35-.33-.13-.02-.42.13-.42.2v1.72c-.09.02-.1-.03-.15-.07-.23-.16-.95-.93-1.11-.97-.39-.1-.65.2-.48.52l1.73,1.56-.02,2.12c-.68.82-1.99,1.09-2.97.52-.19-.11-.55-.39-.6-.6-.07-.29-.02-.88-.06-1.22-.17-1.56-.6-3.09-1.09-4.59.34-.18.72-.28.79-.69.08-.49-.09-.68.25-1.19.43-.65,1.24-.58,1.52-1.02.15-.24.07-.4.12-.63.5-2.6,4.38-2.66,4.91-.12.03.13,0,.26.02.4.13.67.85.56,1.33.92.7.51.47.91.59,1.55.09.47.6.54.97.75.7.39.77.67,1.16,1.23.27.38.86.15.73-.28-.23-.76-1.27-1.54-2.07-1.81-.04-.34,0-.62-.12-.96-.26-.74-.98-1.29-1.83-1.47-.13-3.9-6.32-3.76-6.47.09-1.01.25-1.74.98-1.86,1.92-.03.26.14.59-.27.62-.52-1.22-1.03-2.49-1.84-3.58-2.38-3.18-4.61-1.55-6.13,1.2-.17.3-.66,1.23-.71,1.51-.05.29.23.49.52.37.22-.09.52-.95.66-1.2,1.04-1.98,2.63-4.38,4.82-1.78,1.71,2.03,3.23,6.86,3.32,9.44.07,2.1-1.12,4.32-3.29,5.17-.33.13-1.1.36-1.44.35-.06,0-.08-.02-.11-.06v-3.97l1.59-1.44c.11-.11.13-.23.06-.37-.34-.72-1.28.72-1.65.8v-1.51s-.17-.15-.21-.17c-.23-.09-.53.09-.53.3v2.81c-.3-.15-.86-.89-1.13-.97-.37-.11-.65.27-.4.54l1.53,1.4v2.63c-2.51-.26-4.32-2.24-4.65-4.45-.23-1.59.3-3.62.73-5.17.07-.27.42-1.1.34-1.3-.1-.24-.46-.28-.63-.08-.12.14-.36,1.02-.43,1.26-.52,1.77-1.04,4.06-.63,5.86.54,2.33,2.58,4.31,5.27,4.56v4.82c.23,0,.46,0,.69,0,.02-1.61.04-3.21.05-4.82,2.79-.15,5-2.25,5.45-4.72,1.08.85,2.6.82,3.76.1v9.62c.26,0,.51,0,.77.01v-9.58c.3.12.58.28.9.37.32.09.66.11.98.18.06.3,0,.6.02.9.14,1.69,1.53,3.38,3.53,3.56-.01,1.55-.03,3.1-.04,4.65.27,0,.55,0,.83,0v-4.64c1.1-.06,2.05-.62,2.69-1.39,0,0,0,0,0,0,.24-.29.54-.74.73-1.34.31-.99.12-1.82,0-2.23ZM682.05,523.72v-1c0-.1,1.39-1.03,1.37-1.38,0-.08-.13-.25-.21-.28-.47-.19-.81.44-1.15.62v-1.14c0-.31-.79-.31-.79,0v3.17c-2-.28-3.08-2.25-2.68-3.9.99-.39,1.71-1.18,1.98-2.12.33-.09.6-.34.94-.37.99-.09,2.03.46,2.6,1.15,1.53,1.85.65,4.87-2.04,5.25Z"/>
  </g>
  <g>
    <path class="cls-111" d="M616.54,516.35c-.03,4.55-.06,9.1-.09,13.65,8.33.22,16.66.43,24.99.65,6.22-.65,12.45-1.3,18.67-1.95v-12.17l-30.83-16.33c-4.25,5.39-8.5,10.77-12.75,16.16Z"/>
    <path class="cls-69" d="M614.73,517.19l14.55-17.67,14.12,17.67h-1.3c-4.27-5.26-8.55-10.53-12.82-15.79-4.33,5.26-8.66,10.53-13,15.79h-1.56Z"/>
    <polygon class="cls-75" points="642.11 517.19 641.88 530.64 660.12 528.69 660.12 516.52 642.11 517.19"/>
    <path class="cls-69" d="M629.29,499.52c5.19,1.16,10.37,2.31,15.56,3.47v-3.47h5.02v5.89c3.9,3.93,7.8,7.85,11.7,11.78h-19.46c-4.27-5.89-8.55-11.78-12.82-17.67Z"/>
    <path class="cls-97" d="M626.02,530.24v-11.21h7.19v11.61"/>
    <circle class="cls-97" cx="629.29" cy="511.88" r="1.92"/>
  </g>
  <path class="cls-44" d="M556.41,532.85c-3.67,4.05-13.98,16.54-14.6,34.79-.14,4.25-.38,14.63,5.73,25.13,2.65,4.55,7.37,10.65,21.04,18.54,9.65,5.56,25.84,13.21,48.6,16.63,9.97-5.35,21.65-12.97,33.2-23.81,28.43-26.67,40-57.68,44.83-74.59-20.95-.83-43.1-1.1-66.33-.62-25.53.54-49.73,1.94-72.47,3.93Z"/>
  <g>
    <path class="cls-74" d="M547.32,546.68c12.63-8.04,26.79-13.54,41.41-16.1-14.49,3.22-28.26,9.32-40.3,17.77l-1.11-1.66h0Z"/>
    <path class="cls-74" d="M544.21,556.52c22.13-12.25,45.92-21.48,70.52-27.27-24.37,6.42-47.83,16.23-69.53,29,0,0-.99-1.74-.99-1.74h0Z"/>
    <path class="cls-74" d="M540.17,575.28c29.58-20.2,62.24-35.96,96.51-46.34-25.52,8.26-50.03,19.48-72.99,33.31-7.64,4.61-15.11,9.51-22.38,14.67,0,0-1.14-1.64-1.14-1.64h0Z"/>
    <path class="cls-74" d="M545.05,592.54c31.71-31.32,72.09-53.91,115.55-63.87-32.39,7.98-62.94,22.85-89.29,43.24-8.75,6.8-17.07,14.16-24.85,22.04,0,0-1.41-1.42-1.41-1.42h0Z"/>
    <path class="cls-74" d="M561.07,608.5c28.25-36.86,67.68-65.03,111.75-79.63-32.79,11.45-62.88,30.25-87.48,54.73-8.19,8.14-15.77,16.87-22.68,26.11,0,0-1.59-1.21-1.59-1.21h0Z"/>
    <path class="cls-74" d="M586.86,619.27c22.45-39.27,57.1-71.77,98.78-89.69-30.85,13.9-57.95,35.71-78.52,62.53-6.88,8.89-13.04,18.34-18.52,28.15,0,0-1.74-.99-1.74-.99h0Z"/>
    <path class="cls-74" d="M607.47,626.51c20.96-32.71,46.56-62.43,75.81-87.97-28.76,25.98-53.78,56.06-74.12,89.03,0,0-1.69-1.06-1.69-1.06h0Z"/>
  </g>
  <path class="cls-43" d="M536.3,278.83c-5.06,5.8-12.9,14.49-23.04,24.51-20.35,20.11-28.87,24.72-38.94,36.73-7.94,9.46-17.68,24.5-23.54,48.01-4.35,5.71-9.36,14.56-9.23,26.23,0,0,.02.67.04,1.38.72,19.24,12.66,39.22,30.09,50.76,29.63,19.62,70.6,11.78,91.13-7.25,12.94-11.99,18.74-27.98,18.74-27.98,1.37-3.76,2.29-7.32,2.9-10.52.04-.19.79-4.12,1.1-8.42.75-10.19-1.07-20.47-1.91-24.68,2.91,5,6.59,12.49,8.89,22.1,1.7,7.12,4.59,23.67-3.09,49.31-32.15,107.26-113.89,152.74-113.89,152.74-13.93,7.75-36.74,18.51-67.84,24.67-61.45-43.97-94.98-116.06-86-187.6,11.7-93.22,88.41-139.65,96.23-144.2,50.11-29.16,99.22-27.46,118.36-25.78Z"/>
  <g>
    <path class="cls-66" d="M453.17,508.69c-5.24-.33-10.58-.08-15.86-.12-.28.07-.54.13-.6.45-.06.32-.06,2.3,0,2.61.09.45.66.51,1.05.47v4.4h-10.43s-.25.25-.31.32v18.12c.15.22.34.35.62.32l24.19-.03c.37-.09.51-.4.5-.76v-22.37c.48.04.87.03,1.15-.42v-2.72l-.31-.27ZM437.76,534h-9.53v-16.24h9.53v16.24ZM447.29,534h-4.5v-8.07h4.5v8.07ZM451.06,534h-2.51v-8.07c.97.08,1.23-1.16.16-1.26-2.34-.23-5.05.17-7.44.01-.59.05-.71.76-.27,1.09.19.14.52.13.52.16v8.07h-2.51v-21.9h12.05v21.9ZM452.22,510.85h-14.25v-1.05h14.25v1.05Z"/>
    <path class="cls-66" d="M436.34,520.07h-1.52v1.52c0,.31-1.05.64-1.24-.02-.09-.33-.08-2.33.14-2.54.27-.28,2.19-.29,2.57-.17.68.22.35,1.21.04,1.21Z"/>
    <path class="cls-66" d="M430.53,529.6v1.52c0,.29-.91.62-1.18.03-.15-.34-.15-2.32.08-2.59.29-.34,2.62-.33,2.89.04.74,1.04-1.2,1.12-1.79,1Z"/>
    <path class="cls-66" d="M432.05,520.07h-1.52v1.52c0,.27-.98.7-1.21-.05-.11-.35-.12-2.28.11-2.52.27-.28,2.19-.29,2.57-.17.68.22.35,1.21.05,1.21Z"/>
    <path class="cls-66" d="M434.83,529.6c.05.61.15,2.31-.92,1.81-.47-.22-.41-1.99-.33-2.48.06-.41.28-.54.67-.58.5-.06,2.16-.13,2.39.34.51,1.1-1.16.94-1.81.92Z"/>
    <path class="cls-66" d="M436.43,524.76c-.41.24-1.14.08-1.61.13-.05.56.27,1.84-.59,1.86-.13,0-.5-.15-.57-.25-.14-.22-.15-2.29-.04-2.54.03-.08.19-.23.26-.26.21-.09,2.07-.1,2.35-.05.54.1.66.86.19,1.13Z"/>
    <path class="cls-66" d="M432.13,524.76c-.41.24-1.14.08-1.6.13-.06.56.27,1.84-.59,1.86-.42.01-.62-.28-.66-.65-.05-.47-.12-2.21.31-2.41.18-.09,2.09-.1,2.35-.05.54.1.66.86.19,1.13Z"/>
    <polygon class="cls-66" points="444.47 515.93 444.47 517.6 444.31 517.76 442.47 517.76 442.47 515.77 444.31 515.77 444.47 515.93"/>
    <rect class="cls-66" x="445.72" y="515.77" width="1.88" height="1.99"/>
    <rect class="cls-66" x="442.47" y="519.02" width="1.99" height="1.88"/>
    <rect class="cls-66" x="445.72" y="519.02" width="1.88" height="1.88"/>
    <path class="cls-66" d="M446.67,501.57c-.04-.29-.15-.61-.48-.68-.69-.13-2.35.18-2.88-.06l-2.52-2.51v-2.57h2.88c.22,0,.47-.45.45-.67-.05-.48-3.18-3.16-3.64-3.79l-4.61-.1-17.07-8.54h-.52c-.29.21-.62.41-.94.58-4.36,2.34-8.83,4.56-13.25,6.76-1.2.02-3.01-.31-3.2,1.31-.1.92-.12,3.6.01,4.49.08.54.55,1.05,1.09,1.11,1.5.18,3.37-.12,4.9-.03.54-.2.77-.65.98-1.13h5.85c.25.03.33.27.36.48v19.06c-.8,1.19-2.23,1.98-2.9,3.27l-.02,12.33c-.04.16-2.76.62-3.09,1.01-.24.28-.24,2.77-.04,3.08.07.11.18.18.3.23l17.14.05c.36.01.67-.13.76-.5.08-.36.07-2.54-.09-2.79-.29-.45-3.09-.9-3.14-1.07l-.02-12.43-2.91-3.17.04-19.23.22-.31h19.22v2.57l-2.52,2.51c-.89.33-3.21-.53-3.35.73-.09.78-.08,2.56,0,3.36.03.39.12.76.58.78h11.74c.31.04.62-.17.67-.48.1-.57.08-3.03,0-3.67ZM416.18,485.34l.35-.28,1.44-.71v5.24h-1.78v-4.24ZM417.07,490.8c1.49,0,2.71,1.21,2.71,2.7s-1.21,2.7-2.71,2.7-2.7-1.21-2.7-2.7,1.21-2.7,2.7-2.7ZM415.66,525.66l3.14-3.39v6.6l-3.14-3.21ZM417.85,529.91h-2.51v-2.72c.67.79,1.75,1.62,2.36,2.41.08.1.2.13.16.31ZM415.34,523.94v-6.6l3.15,3.3-3.15,3.3ZM415.66,515.71l3.14-3.29v6.6l-3.14-3.31ZM415.34,514.1v-6.71l3.14,3.32-3.14,3.39ZM415.66,505.86l3.14-3.39v6.6l-3.14-3.21ZM415.34,504.14v-6.6l3.15,3.3-3.15,3.3ZM417.12,497.44c.59.07,1.12-.17,1.68-.32v2.1c-.66-.5-1.12-1.19-1.68-1.78ZM406.54,495.66h-4.4v-4.4h4.4v4.4ZM407.8,494.51v-1.05s1.05,1.05,1.05,1.05h-1.05ZM410.47,494.19c-.64-.44-1.2-1.09-1.73-1.68h3.46c-.24.27-1.5,1.68-1.73,1.68ZM412.09,494.45l1.05-1,.1,1.05-1.15-.05ZM413.8,491.26l-5.99-.02c-.1-.68-.51-.84-.96-1.24l8.07-4.09v4.24l-1.12,1.1ZM412.41,518.86l1.68-1.62v12.89l-1.68.42v-11.68ZM424.97,532.75v1.25s-15.81,0-15.81,0l.1-1.21,5.71-1.63h4.4s5.6,1.59,5.6,1.59ZM421.73,518.86v11.68l-1.68-.42v-12.89l1.68,1.62ZM419.22,490.16v-5.82l13.72,6.92h-12.52l-1.2-1.1ZM420.89,494.5c.17-.33.09-.69.1-1.05l1.05,1.05h-1.15ZM423.67,494.19c-.64-.44-1.2-1.09-1.73-1.68h3.46c-.25.27-1.5,1.68-1.73,1.68ZM425.29,494.5l1.64-1.67c.17-.03,1.51,1.42,1.72,1.67h-3.35ZM430.27,494.19c-.64-.44-1.2-1.09-1.73-1.68h3.46c-.25.27-1.5,1.68-1.73,1.68ZM431.89,494.5l1.64-1.67c.17-.03,1.51,1.42,1.71,1.67h-3.35ZM436.87,494.19c-.64-.44-1.2-1.09-1.73-1.68h3.46c-.24.27-1.5,1.68-1.73,1.68ZM438.49,494.5l1.64-1.67c.17-.03,1.51,1.42,1.72,1.67h-3.35ZM440.13,499.54c.17-.03,1.23,1.13,1.4,1.36h-2.72l1.32-1.36ZM445.41,504.46h-10.47v-2.3h10.47v2.3Z"/>
    <path class="cls-66" d="M417.45,493.48c0,.21-.17.38-.38.38s-.38-.17-.38-.38.17-.38.38-.38.38.17.38.38Z"/>
  </g>
  <g id="QRVqCJ.tif">
    <g>
      <path class="cls-66" d="M373.26,508.65c0,1.84-1.49,3.33-3.33,3.33s-3.33-1.49-3.33-3.33,1.49-3.33,3.33-3.33,3.33,1.49,3.33,3.33Z"/>
      <g>
        <path class="cls-66" d="M396.55,534.55v.71h-32.87c-.18-.15-.39-.29-.39-.55,0-.21.22-.55.43-.55h12.9v-1.11h3.31v1.11h8.32v-1.11h3.31v1.11h4.58c.16,0,.35.26.42.39Z"/>
        <g>
          <g>
            <path class="cls-66" d="M390.44,525.26l-1.98,3.18c-.17.17-.42.19-.64.2-1.04.08-3.16.11-4.16,0-.44-.05-.71-.33-.59-.78l1.59-2.59h5.78Z"/>
            <polygon class="cls-66" points="392.84 521.43 391.12 524.15 385.44 524.15 386.99 521.64 387.06 521.43 392.84 521.43"/>
            <path class="cls-66" d="M393.53,520.32h-5.68l1.27-2.01c.16-.23.45-.24.71-.26,1.07-.08,2.91-.09,3.97,0,1.59.13.15,1.63-.26,2.28Z"/>
            <polygon class="cls-66" points="390.44 527.4 390.44 531.95 389.33 531.95 389.33 529.13 390.44 527.4"/>
          </g>
          <g>
            <path class="cls-66" d="M379.72,523.64l-2.93,4.77c-.16.2-.43.22-.67.24-2.09.15-4.42-.08-6.52-.05-.48-.13-.56-.54-.31-.93l2.54-4.03h7.89Z"/>
            <polygon class="cls-66" points="382.84 518.63 380.4 522.53 372.51 522.53 374.85 518.63 382.84 518.63"/>
            <path class="cls-66" d="M385.1,514.95l-1.55,2.58h-7.99c.61-.9,1.12-1.89,1.73-2.79.11-.15.24-.44.41-.5l7.13.02c.26.14.32.41.26.68Z"/>
            <polygon class="cls-66" points="378.81 527.27 378.81 531.95 377.71 531.95 377.71 528.99 378.81 527.27"/>
          </g>
        </g>
      </g>
      <path class="cls-66" d="M367.97,513.14c-.04.14-.62,1.15-.72,1.23-.41.33-1.04-.02-.88-.62.03-.13.57-1.08.65-1.17.08-.08.3-.18.4-.19.38-.03.64.38.54.74Z"/>
      <path class="cls-66" d="M366.08,511.46c-.1.17-1.26.82-1.46.81-.44-.03-.65-.52-.43-.88.08-.13,1.19-.77,1.35-.79.47-.06.77.46.54.87Z"/>
      <path class="cls-66" d="M375.09,512.25c-.16-.03-1.1-.6-1.22-.73-.31-.35-.13-.86.31-.94.2-.03,1.3.57,1.45.74.36.41,0,1.04-.54.93Z"/>
      <path class="cls-66" d="M373.53,503.51c-.02.09-.52.97-.61,1.08-.23.3-.65.4-.92.11-.12-.13-.16-.33-.13-.5.03-.16.69-1.27.82-1.33.44-.2.93.13.83.63Z"/>
      <path class="cls-66" d="M370.34,504.06c-.26.28-.85.18-.94-.22-.05-.21-.05-1.18,0-1.41.09-.55.96-.56,1.09,0,.06.29.06,1.41-.14,1.62Z"/>
      <path class="cls-66" d="M365.34,509.06c-.21.2-1.33.2-1.62.14-.57-.13-.56-1,0-1.09.23-.04,1.19-.04,1.41,0,.4.09.5.68.22.94Z"/>
      <path class="cls-66" d="M373.4,514.33c-.16.18-.46.19-.68.1-.16-.07-.82-1.18-.85-1.37-.07-.43.44-.79.83-.56.17.1.8,1.12.84,1.31.03.16-.03.39-.14.52Z"/>
      <path class="cls-66" d="M370.48,514.88c-.13.59-.99.56-1.09-.05-.06-.41-.13-1.59.37-1.71.22-.05.5-.02.63.19.13.21.15,1.32.09,1.57Z"/>
      <path class="cls-66" d="M375.68,505.92c-.05.08-1.05.69-1.16.72-.59.18-1.05-.35-.71-.84.09-.12,1.11-.71,1.27-.74.53-.11.86.43.59.86Z"/>
      <path class="cls-66" d="M376.17,509.2c-.23.05-1.16.04-1.38-.02-.56-.15-.51-.95-.02-1.06.21-.05,1.26-.04,1.45.01.53.16.48.94-.05,1.06Z"/>
      <path class="cls-66" d="M367.14,504.8c-.19-.11-.8-1.19-.81-1.4-.01-.24.13-.48.38-.54.2-.05.41-.02.57.11.08.07.56.89.61,1.01.24.6-.2,1.12-.74.81Z"/>
      <path class="cls-66" d="M365.41,506.66c-.11-.02-1.03-.55-1.12-.63-.3-.28-.22-.87.21-.96.34-.07,1.58.62,1.64.93.1.51-.25.77-.73.67Z"/>
    </g>
  </g>
  <path class="cls-42" d="M331.29,535.66c58.14.23,116.29.47,174.43.7-.72,19.41-1.45,38.82-2.17,58.24-2.95,8.02-8.1,19.03-17.22,30.13-14.94,18.19-32.51,26.84-42.03,30.69-14.99-5.92-35.31-16.05-55.54-33.55-35.84-30.99-51.16-67.55-57.46-86.2Z"/>
  <g>
    <path class="cls-13" d="M364.78,535.66c-5.6,7.46-11.2,14.93-16.81,22.39"/>
    <line class="cls-12" x1="379.83" y1="535.66" x2="359.81" y2="578.02"/>
    <path class="cls-15" d="M395.94,535.91c-6.76,22.79-13.52,45.57-20.27,68.36"/>
    <line class="cls-14" x1="410.49" y1="535.66" x2="401.14" y2="628.44"/>
    <line class="cls-7" x1="426.35" y1="535.66" x2="431.03" y2="633.12"/>
    <line class="cls-6" x1="441.16" y1="535.66" x2="459.88" y2="624.02"/>
    <line class="cls-5" x1="457.02" y1="535.66" x2="484.83" y2="605.83"/>
  </g>
  <g>
    <line class="cls-8" x1="337.75" y1="535.66" x2="499.27" y2="535.66"/>
    <line class="cls-10" x1="339.51" y1="550.85" x2="499.27" y2="550.85"/>
    <line class="cls-11" x1="343.27" y1="569.1" x2="507.77" y2="569.1"/>
    <line class="cls-9" x1="358.65" y1="589.42" x2="515.53" y2="587.34"/>
  </g>
  <path class="cls-39" d="M624.74,628.06c-13.33,10.85-46.35,34.69-94.78,39.73-67.77,7.05-116.64-27.82-128.17-36.53,18.75-3.43,33.42-9.14,43.46-13.85,18.38-8.62,35.18-16.2,43.73-33.72,2.4-4.91,3.54-9.33,4.13-12.24.57-4.09,1.5-10.04,2.98-17.19.64-3.08,1.26-6.01,1.63-7.33,6.02-21.52,22.33-37.99,22.33-37.99,5.33-5.38,10.33-9.03,15.06-12.48,6.81-4.96,7.7-4.79,15.17-9.81,4.52-3.04,21.82-14.81,29.72-26.86,2.37-3.62,4.59-7.41,4.59-7.41,2.61-4.45,5.38-9.64,5.38-9.64.15.01.3.02.45.03,4,.22,8.04.46,12.13.74,4.22.28,8.38.59,12.5.92-1.54,9.76-5.11,23.5-14.47,36.64-19.87,27.92-45.67,24.84-57.69,51.04-9.21,20.09-2.08,40.32-1.13,42.88,5.67,15.3,16.87,23.43,27.18,30.95,19.96,14.56,40.87,20,55.8,22.11Z"/>
  <circle id="ellipse_gold" data-name="ellipse gold" class="cls-17" cx="513.26" cy="473.97" r="212.64"/>
  <ellipse id="ellipse_gold-2" data-name="ellipse gold" class="cls-16" cx="513.26" cy="473.66" rx="182.65" ry="185.91"/>
  <ellipse id="ellipse_blue" data-name="ellipse blue" class="cls-3" cx="513.26" cy="473.77" rx="191.55" ry="194.94" transform="translate(-6.58 7.23) rotate(-.8)"/>
  <path class="cls-38" d="M556.41,453.55c-2.07,2.53-5.23,6.07-9.61,9.7-.29.24-.59.48-.89.73-.03.03-.06.05-.09.08-.36.29-.73.58-1.11.87-.36.28-.72.55-1.09.83-.49.36-.98.71-1.49,1.07-.44.3-.88.61-1.34.91-.46.31-.93.61-1.39.9-.44.27-.87.54-1.31.8s-.87.51-1.31.76c-2.24,1.29-4.66,2.5-7.26,3.59-11.19,4.72-20.92,5.29-26.72,5.37-.3,0-.59.01-.88.01-.65.01-1.29.01-1.9,0-.31,0-.62-.01-.91-.01-.03,0-.05,0-.07,0-.6-.02-1.17-.04-1.7-.06-.28-.02-.54-.03-.8-.04-.5-.03-.97-.05-1.4-.08-.22,0-.43-.03-.62-.04-.17-.01-.44-.03-.78-.06-.19-.02-.41-.04-.65-.06-.23-.03-.47-.05-.7-.08-.06,0-.13-.01-.19-.02-.36-.03-.72-.07-1.07-.12-.01,0-.03,0-.04,0-.23-.03-.47-.06-.71-.1-.77-.11-1.66-.24-2.6-.4-4.91-.78-9.48-1.93-13.6-3.32-.31-.11-.62-.21-.94-.32-12.09-4.19-20.39-9.98-23.36-12.16-1.99-1.46-5.13-3.89-8.73-7.31-8.36-7.95-19.2-21.22-23.74-39.94-3.52-14.5-1.82-26.38-1.14-30.82,9.79-64.12,95.83-89.25,106.18-157.66,1.29-8.54,2.21-23.1-3.49-42.4,5.53,4.45,15.33,13.54,22.17,28.28,8.25,17.78,7.42,33.48,7.17,37.11-1.42,20.24-11.05,34.19-16.53,42.12-7.44,10.77-16.33,18.97-22.82,25.09-7.92,7.47-12.74,11.59-20.12,18.68-2.67,2.57-6.42,6.39-9.79,9.9-1.89,1.97-3.21,3.38-3.8,4.02,0,0-2.51,2.71-4.56,5.03-19.08,21.6-21.11,41.54-21.11,41.54-.73,7.17.09,13.2.97,17.24,2.59,11.95,8.48,19.8,11.4,23.6,9.98,12.99,22.49,19.08,29.14,21.72.01.01.02.01.03.01,6.04,2.28,11.74,3.54,16.31,4.23.03,0,.06,0,.09.01,2.74.43,5.65.73,8.72.83,17.12.58,31.13-5.1,40.18-10.03Z"/>
  <path class="cls-85" d="M586.2,424.63c-.01.14-.01.28-.02.42-.01.16-.02.32-.03.49-.01.06-.01.11-.01.16-.02.19-.03.38-.05.58,0,.11-.01.22-.02.33-.02.17-.03.35-.05.52-.02.2-.04.39-.06.59-.01.14-.02.28-.04.42-.02.2-.05.39-.07.58-.03.22-.06.45-.09.68-.02.16-.04.31-.06.47,0,.01,0,.02-.01.03-.02.24-.06.48-.1.72-.02.16-.05.32-.08.48-.1.61-.21,1.25-.34,1.9v.03c-.08.42-.15.84-.24,1.27-.14.65-.29,1.29-.47,1.93-.09.35-.18.69-.27,1.02-.14.48-.27.96-.41,1.41-.04.18-.1.36-.15.53-.19.61-.39,1.21-.59,1.78-.11.31-.21.62-.33.93-.08.24-.16.47-.25.7-.02.04-.03.09-.05.13-.03.07-.05.13-.08.2-.03.07-.05.15-.09.22-.04.09-.07.18-.11.27-1.29,3.3-2.85,6.39-4.6,9.32-.12.21-.24.41-.37.61-.21.34-.41.67-.64,1-.02.05-.05.09-.08.13-.27.45-.57.9-.88,1.35-.03.06-.07.11-.1.16-.31.48-.64.95-.97,1.41-.5.71-1.01,1.41-1.53,2.09-.36.48-.77,1-1.21,1.55-.11.16-.24.32-.37.48-.02.03-.03.05-.06.07-3.9,4.82-8.21,9.07-12.45,12.78-.34.3-.68.6-1.03.91-4.58,3.93-9.03,7.26-12.77,10.05-3.08,2.3-5.84,4.19-8.41,5.85-.17.12-.34.22-.5.33-8.48,5.44-14.87,8.51-23.65,16.23-.1.09-.2.17-.3.26-4.86,4.09-7.49,6.83-9.53,9.2-2.39,2.78-5.2,6.03-7.64,10.34-.1.18-.2.35-.29.52-.11.2-.23.4-.33.59-.21.38-.41.76-.6,1.16-.1.19-.18.37-.27.56-.02.06-.05.12-.09.18-.02.04-.04.08-.06.12-.12.25-.24.51-.34.76-.23.5-.45,1.02-.66,1.55-.16.39-.31.79-.45,1.18-2.47,6.82-3.04,13.43-2.78,19.12.02.34.04.68.06,1.01.01.16.02.31.03.46.29,3.86.95,7.24,1.61,9.9.24,1,.47,1.83.66,2.47-2.28-1.86-17.98-15.14-17.88-36.05.06-12.9,6.11-22.54,7.88-25.17,3.91-5.83,8.27-9.38,10.92-11.39,20.12-15.35,35.21-14.34,57.1-28.1,0,0,24.11-15.15,31.74-34.44,1.08-2.74,3.5-12.58,3.59-13.17.06-.38.11-.71.14-.97.02-.12.03-.23.05-.34.02-.16.04-.32.06-.47.03-.24.06-.48.08-.72.06-.46.11-.91.14-1.34.02-.18.04-.35.05-.52.04-.42.08-.82.1-1.21.02-.35.04-.67.06-.95.05.32.1.65.14,1,.41,3.1.71,6.97.5,11.35Z"/>
  <path class="cls-37" d="M607.26,477.44c-22.09,36.74-60.28,53.65-61.75,83.46-.27,5.45.6,10.74.6,10.74,1.41,5.45,4.2,13.47,10,21.81,4.27,6.15,8.88,10.6,12.58,13.65-3.78-1-36.17-10.08-45.87-39.14-1.24-3.71-4.42-15.39-1.34-28.89,5.1-22.37,22.78-35.38,39.14-50.81.68-.65,1.36-1.3,2.04-1.95.65-.62,1.41-1.36,2.27-2.22.67-.66,1.4-1.4,2.18-2.21.25-.26.51-.52.77-.8l.09-.09s.09-.1.15-.16c.32-.35.94-1,1.53-1.65.4-.44.8-.88,1.19-1.33.67-.76,1.34-1.52,1.98-2.3.59-.7,1.18-1.42,1.75-2.14.29-.35.57-.71.85-1.07,4.82-6.19,8.96-13.1,11.88-21.2h.01c.34-.94.66-1.88.96-2.84.01-.03.02-.06.03-.1.07-.23.14-.49.51-1.7.59-1.97,1.31-4.05,1.94-6.5.02-.07.04-.13.05-.19.19-.76.37-1.55.53-2.39.14-.76.22-1.28.38-2.29,0,0,.03-.2.08-.54.02-.12.04-.25.06-.4.03-.17.04-.26.04-.26,0,0,.02-.14.05-.38.02-.12.04-.27.06-.43.04-.26.07-.57.11-.91.04-.34.09-.71.13-1.08.01-.06.02-.12.02-.19.02-.17.04-.35.06-.53,0-.07.01-.13.02-.2.03-.28.05-.57.08-.86,1.29-14.43-2.17-26.62-2.17-26.62-.08-.26-.15-.52-.15-.52-.44-1.49-1.22-4.12-2.54-7.14-.34-.77-.69-1.51-1.04-2.22-.08-.16-.16-.32-.24-.48-.04-.08-.08-.16-.12-.23-.47-.92-.95-1.82-1.42-2.69-.03-.06-.05-.1-.07-.13-.03-.04-.05-.09-.08-.13-.3-.53-.61-1.06-.93-1.59-6.78-11.07-16.32-18.15-25.84-22.68-10.74-5.26-22.65-7.83-33.68-7.98-1.03-.02-2.05-.02-3.06.01-.39.01-.78.02-1.16.05-.35.01-.69.03-1.03.06-13.64.78-25.06,5.3-34.05,10.75-.26.16-.46.27-.62.37-10.86,6.55-18.12,14.46-23.08,21.72.83-2.41,1.63-4.3,2.15-5.48,0,0,5.08-11.37,16.19-22.78.64-.66,1.29-1.29,1.29-1.29.3-.29.59-.57.89-.85.69-.66,1.4-1.32,2.14-1.98,1.26-1.12,2.46-2.12,3.57-3,.17-.14.35-.27.52-.41.44-.34.88-.67,1.32-1,3.13-2.33,6.56-4.53,10.31-6.52.3-.17.6-.32.9-.48.47-.25.93-.49,1.38-.72.32-.16.63-.32.94-.47.41-.2.81-.39,1.2-.57.37-.17.73-.33,1.08-.49.08-.04.15-.08.23-.11.43-.19.82-.36,1.19-.51.2-.09.41-.17.62-.26.31-.13.61-.25.87-.34.01,0,.01-.01.01-.01.33-.13.62-.24.86-.33.08-.03.15-.06.22-.09.16-.06.33-.12.49-.17.16-.06.31-.12.46-.17.37-.13.71-.25,1.02-.36.18-.06.38-.13.61-.21.24-.08.48-.16.72-.24.41-.13.87-.28,1.38-.44.45-.13.93-.27,1.44-.42.18-.05.37-.1.56-.16.61-.18,1.22-.34,1.83-.48.3-.07.6-.15.92-.22.63-.15,1.29-.3,1.97-.44.78-.17,1.56-.32,2.34-.46.63-.12,1.28-.23,1.95-.34.39-.06.78-.12,1.18-.18.51-.07,1.03-.14,1.56-.2,8.31-.99,16.1-.56,23.06.6.05,0,.1.01.14.02.04,0,.09,0,.13.02,8.93,1.51,16.47,4.2,21.91,6.58.38.16.75.33,1.1.49,0,0,.02.01.03.02.37.16.73.33,1.07.49.25.11.48.22.7.33.25.12.5.23.73.35,1.65.82,2.98,1.53,3.95,2.07.38.21.83.46,1.34.75.18.1.32.19.43.26.17.11.36.22.57.35.1.06.2.13.31.19.1.07.21.13.32.2.22.14.45.29.7.44.24.15.49.31.75.48,9.24,5.87,27.18,19.68,35.57,43.09.04.09.07.19.1.28v.02c.52,1.46,1,2.97,1.44,4.51,10.43,36.67-9.83,70.37-14.53,78.18Z"/>
  <path class="cls-86" d="M591.5,436.44c0,.35-.15,1.56-1.04,6.16,0,0,0,.02-.01.04-.01.05-.02.09-.03.14-4.16,21.2-18.7,37.67-21.24,39.96-.9.82-2.71,2.44-2.71,2.44-1.25.94-2.44,1.54-4.82,3.03,0,0,0,0,0,0,0,0-4.88,2.99-9.74,6.68-31.34,23.76-44.34,44.94-44.34,44.94-2.26,3.64-4.58,7.83-6.75,12.59-3.15,6.9-5.23,13.33-6.64,18.88.28-7.05,1.51-17.51,6.02-29.3,4.41-11.53,10.31-20,14.73-25.41h0c10.08-13.44,21.83-21.07,28.97-25.62,0,0,10.67-6.8,14.35-9.69,2.39-1.87,4.79-3.93,4.79-3.93.42-.36.86-.74,1.3-1.13,1.06-.94,2.16-1.95,3.32-3.06.41-.4.86-.83,1.35-1.3,3.39-3.29,8.38-8.37,12.65-14.9,1.42-2.18,2.87-4.68,3.09-5.06.86-1.49,2.05-3.54,3.14-5.8,1.08-2.24,2.45-5.47,3.6-9.66Z"/>
  <path class="cls-87" d="M602.74,455.19c-3.69,5.22-13.53,18.83-31.53,28.35-4.27,2.26-7.99,3.76-10.6,4.72.36-.31.72-.62,1.09-.94.25-.23.51-.46.77-.68,3.87-3.49,8.48-8.2,12.94-14.3,1.5-2.05,2.99-4.26,4.41-6.63.21-.33.41-.66.61-.99.65-1.08,1.23-2.1,1.76-3.06.13-.24.26-.47.38-.7,1.47-2.65,3.15-5.94,4.72-9.82h.01c2.96-7.33,5.55-16.76,5.6-27.95.03-6.26-.04-17.71-6.39-30.34-.08-.16-.16-.32-.24-.48-.04-.08-.08-.16-.12-.23-.47-.92-.95-1.82-1.42-2.69-.03-.06-.05-.1-.07-.13-.03-.04-.05-.09-.08-.13-.3-.53-.61-1.06-.93-1.59-6.78-11.07-16.32-18.15-25.84-22.68-10.74-5.26-22.65-7.83-33.68-7.98-1.03-.02-2.05-.02-3.06.01-.39.01-.78.02-1.16.05-.35.01-.69.03-1.03.06-13.64.78-25.06,5.3-34.05,10.75-.19.11-.38.22-.62.37-11.68,7.05-17.95,14.58-22.7,20.39-.18.22-.33.4-.38.47.24-.59.46-1.09.62-1.46,0,0,.97-2.2,2.08-4.25,0,0,0-.02.02-.04.01-.03.04-.07.06-.11.11-.21.22-.43.34-.65,2.98-5.73,7.12-12.14,12.86-18.44,2.31-2.53,4.58-4.71,6.68-6.57,1.26-1.12,2.46-2.12,3.57-3,.17-.14.35-.27.52-.41.46-.36.9-.7,1.32-1,1.76-1.33,3.18-2.29,4.12-2.89,3.38-2.21,6.59-3.96,9.41-5.3.41-.2.81-.39,1.2-.57.37-.17.73-.33,1.08-.49,1.05-.46,2.03-.87,2.91-1.22.01,0,.01-.01.01-.01.3-.11.59-.22.86-.33.25-.09.48-.17.71-.26.16-.06.31-.12.46-.17.37-.13.71-.25,1.02-.36.18-.06.38-.13.61-.21.24-.08.48-.16.72-.24.41-.13.87-.28,1.38-.44.45-.13.93-.27,1.44-.42.18-.05.37-.1.56-.16.58-.15,1.18-.31,1.83-.48.3-.07.6-.15.92-.22,1.85-.44,3.95-.87,6.26-1.24.39-.06.78-.12,1.18-.18.51-.07,1.03-.14,1.56-.2,1.57-.2,3.21-.36,4.92-.47,19.96-1.28,40.32,7.69,40.32,7.69,3.08,1.38,35.7,16.49,47.57,49.51.04.12.08.22.1.28v.02c.19,9-.31,36.01-17.61,60.44Z"/>
  <path class="cls-94" d="M620.15,394.15v.03c0,5.93-.43,26.33-7.23,42.26-5.42,12.72-19.35,24.8-48.54,48.43-6.57,5.31-17.9,14.2-29.48,28.41-5.16,6.34-9.54,12.71-12.26,21.49-3.12,10.08-2.58,18.28-2.4,20.37.98,11.48,5.65,19.5,7.61,22.78,11.33,18.97,31.26,25.37,36.84,26.97-6.17-2.62-18.13-8.76-27.23-21.77-3.59-5.14-9.82-14.04-10.18-26.62-.41-14.44,7.15-26.22,10.36-31.26,5.24-8.24,10.33-12.9,30.12-28.7,17.77-14.19,33.59-22.46,44.56-38.99,6.73-10.15,9.15-18.43,9.67-20.28.82-2.93,4.84-18,.22-36.36-.73-2.88-1.5-5.21-2.07-6.77Z"/>
  <path class="cls-2" d="M562.81,487.42c.3-.12.61-.24.91-.37"/>
  <path class="cls-89" d="M562.65,486.31c3.28-2.93,7.43-7.06,11.63-12.53,2.83-3.68,4.65-6.62,6.15-9.06,5.31-8.63,7.1-13.98,7.83-16.42.01-.04.02-.08.03-.1.81-2.21,1.57-4.55,2.14-6.86.11-.45.22-.9.31-1.34.02-.07.04-.13.05-.19.48-2.2.83-4.22.99-5.22.02-.16.04-.3.06-.4.03-.17.04-.26.04-.26,0,0,.02-.14.05-.38.02-.12.04-.27.06-.43.04-.26.07-.57.11-.91.05-.33.09-.7.13-1.08.01-.06.02-.12.02-.19.02-.17.04-.35.06-.53,0-.07.01-.13.02-.2.03-.28.05-.57.08-.86,1.29-14.43-2.17-26.62-2.17-26.62-.08-.26-.15-.52-.15-.52-.44-1.49-1.22-4.12-2.54-7.14-.34-.77-.69-1.51-1.04-2.22-.08-.16-.16-.32-.24-.48-.04-.08-.08-.16-.12-.23-.47-.92-.95-1.82-1.42-2.69-.03-.06-.05-.1-.07-.13-.03-.04-.05-.09-.08-.13-.3-.53-.61-1.06-.93-1.59-6.78-11.07-16.32-18.15-25.84-22.68-10.74-5.26-22.65-7.83-33.68-7.98-1.03-.02-2.05-.02-3.06.01-.39.01-.78.02-1.16.05-.35.01-.69.03-1.03.06-13.64.78-25.06,5.3-34.05,10.75-.21.12-.42.24-.62.37-11.13,6.87-18.47,15.07-21.64,19.01-.11.15-.23.29-.33.42-.03.03-.05.05-.07.08-.04.06-.08.12-.13.16,4.38-8.27,18.46-31.53,46.07-39.77,36.75-10.97,81.87,9.18,93.76,44.16,9.34,27.49-4.35,56.8-12.42,66.77-1.05,1.29-6.3,7.56-13.73,15.05-5.24,5.28-9.82,9.43-13.07,12.25Z"/>
  <path class="cls-95" d="M556.41,453.55c-6.73,8.05-13.62,13.01-18.32,15.89-6.89,4.23-12.64,6.17-13.98,6.62,0,0-8.11,2.67-17.59,3.12-40.98,1.95-65.37-24.19-65.37-24.19-4.85-5.22-18.62-20.46-19.54-43.23-.87-21.68,10.46-37.31,17.07-46.43,9.3-12.83,19.12-19.77,38.77-33.66,17.59-12.43,27.76-16.74,43.4-31.61,6.3-5.99,11.07-11.38,14.16-15.09-1.58,2.65-3.96,6.45-7.15,10.8-7.09,9.67-13.9,16.23-18.03,20.17-6.12,5.84-12.38,11.21-19.16,17.71-.95.91-1.85,1.79-1.85,1.79-1.05,1.03-4.49,4.58-9.08,9.16,0,0-3.28,3.42-5.85,6.21-6.25,6.8-10.91,13.33-14.38,19.21-.02.02-.03.04-.04.07-3.47,4.93-9.26,14.75-10.06,28.07-1.18,19.63,9.23,34.15,12.52,38.61,1.42,1.92,2.65,3.35,3.4,4.2,15.49,17.53,36.35,20.85,42.08,21.76.54.09,1.17.18,1.88.27.06.01.11.01.17.02,4.37.57,11.68,1.07,20.49-.25,11.97-1.79,21.03-6.11,26.45-9.23Z"/>
  <g>
    <path class="cls-93" d="M494.19,393.11c1.57,2.33,3.14,4.66,4.71,6.99,0,0,6.08-5.17,10.64-5.47,2.98-.2,5.63,1.09,6.27,3.24.48,1.63-.46,3.25-.95,4.05-2.66,4.39-8.39,5.16-9.88,5.32.08,2.08.16,4.15.24,6.23,3.78-.67,7.56.88,9.58,3.92,1.78,2.69,2.14,6.46.38,9.33-1.8,2.94-5.06,3.68-6,3.89-7.37,1.66-13.94-4.97-14.83-5.89-4.96-5.14-5.96-12.03-6.23-13.7,0,0,0,0,0,0-.08,1.12-1.02,17.4,10.49,24.95,1.71,1.12,8.56,5.62,15.81,2.74,5.85-2.33,9.37-8.43,9.57-14.29.19-5.44-2.52-9.36-3.5-10.64,5.05,1.09,7.85.03,9.42-1.01,4.88-3.23,4.02-10.27,8.97-11.9.27-.09,2.32-.73,4.2.19,4.27,2.1,4.82,10.88,1.88,16.83-.95,1.93-2.73,5.52-6.53,6.23-3.12.59-6.51-.98-8.81-3.95-.35,5.01,1.85,9.41,5.47,11.09,4,1.86,8.13-.32,8.97-.76,8.05-4.25,8.07-16.25,8.05-17.73-.01-1.19-.29-11.98-7.75-16.92-1.02-.68-3.29-2.14-6.38-2.12-4.09.03-7.01,2.65-7.91,3.48-5.08,4.7-3.7,10.38-7.6,12.01-1.13.47-3.02.73-6.08-.76.55-.39,5.23-3.8,5.32-9.57.1-6.36-5.45-9.94-6.08-10.33-5.74-3.57-14.62-1.95-21.43,4.56Z"/>
    <path class="cls-88" d="M515.77,377.46s5.17,24.92,27.81,8.51l-5.32-6.08s-12.92,13.22-22.49-2.43Z"/>
    <path class="cls-96" d="M520.94,376.85c1.67,1.82,3.34,3.65,5.02,5.47,1.98-1.7,3.95-3.39,5.93-5.09-1.82-1.7-3.65-3.39-5.47-5.09-1.82,1.57-3.65,3.14-5.47,4.71Z"/>
  </g>
  <path class="cls-92" d="M542.96,219.5c-1.71,9.23-5.3,23.39-13.73,38.53-30.06,53.96-87.48,59.04-107.68,108.46-2.1,5.14-7.23,18.09-6.29,35.06,1.06,19.15,9.27,32.78,11.57,36.39,4,6.3,8.28,10.92,11.55,14.03-4.45-5.21-9.62-12.66-13.29-22.47,0,0-7.38-19.72-3.53-39.77.09-.46.18-.89.19-.96,0,0,2.46-11.91,9.11-23.15,8.32-14.05,21.36-23.52,30.27-29.89,9.12-6.51,12.58-7.64,21.15-12.93,11.61-7.17,33.03-20.38,48.52-43.97,6.67-10.15,18.02-27.99,14.73-49.43-.64-4.19-1.7-7.59-2.55-9.9Z"/>
  <path class="cls-91" d="M586.2,424.63c-.01.14-.01.28-.02.42-.01.21-.03.43-.04.65-.02.19-.03.38-.05.58-.02.27-.04.55-.07.85-.02.2-.04.39-.06.59-.03.32-.07.66-.11,1-.03.22-.06.45-.09.68-.02.17-.05.34-.07.5-.05.39-.11.79-.18,1.2-.1.61-.21,1.25-.34,1.9-.35,1.75-.8,3.65-1.39,5.66-.23.75-.47,1.52-.74,2.31-.11.31-.21.62-.33.93-.12.34-.25.68-.38,1.03-.03.07-.05.15-.09.22-.22.6-.47,1.21-.73,1.83-1.33,3.16-2.72,5.7-3.98,7.76-.12.21-.24.41-.37.61-.21.34-.41.67-.64,1-.02.05-.05.09-.08.13-.3.48-.6.93-.88,1.35-.03.06-.07.11-.1.16-.23.35-.55.83-.97,1.41-.41.59-.92,1.29-1.53,2.09-.36.48-.77,1-1.21,1.55-2.68,3.32-6.8,7.9-12.88,13.33-.34.3-.68.6-1.03.91-4.93,4.31-8.82,7.17-12.77,10.05-3.18,2.32-5.94,4.21-8.41,5.85-.17.12-.34.22-.5.33-9.19,6.05-14.5,8.58-23.65,16.23-.1.09-.2.17-.3.26-4.86,4.09-7.49,6.83-9.53,9.2-2.39,2.78-5.2,6.03-7.64,10.34-.22.36-.43.73-.62,1.11-.21.38-.41.76-.6,1.16-.12.24-.24.49-.36.74-.02.04-.04.08-.06.12-.11.25-.23.5-.34.76-.23.5-.45,1.02-.66,1.55-.16.39-.31.79-.45,1.18-2.59,7.01-3.05,13.72-2.78,19.12.02.34.04.68.06,1.01.01.16.02.31.03.46.31,3.91.96,7.01,1.37,8.85.08.37.16.72.24,1.05.24,1,.47,1.83.66,2.47-1.06-2.59-2.4-6.35-3.4-11-.9-4.19-4.62-21.47,2.38-36.66,6.76-14.69,21.39-22.73,38.33-32.04,1.78-.98,8.76-4.68,17.34-10.98,4.41-3.24,27.08-19.89,34.3-39.63,2.56-7.02,3.9-14.64,4.4-18.01.06-.38.11-.71.14-.97.02-.13.04-.24.05-.34.04-.31.06-.47.06-.47.03-.24.06-.48.08-.72.06-.46.11-.91.14-1.34.06-.64.11-1.22.15-1.73.02-.35.04-.67.06-.95.05.32.1.65.14,1,.43,3.07.72,6.92.5,11.35Z"/>
  <path class="cls-90" d="M556.41,453.55c-4.85,5.84-16.72,18.4-35.59,22.65-29.34,6.62-57.36-10.86-71.86-31.07-1.87-2.59-21.46-30.75-12.48-60.57,7.19-23.87,28.14-38.57,56.4-57.94,6.86-4.71,12.8-8.27,16.96-10.67-1.36,1.26-3.41,3.17-5.9,5.48-12.01,11.21-17.56,16-22.92,21.69-2.83,3.01-5.86,6.36-5.86,6.36s-2.34,2.59-4.1,4.6c-13.2,15.09-18.18,29.44-18.18,29.44-1.59,4.58-3.48,10.17-3.55,17.82-.08,8.64,2.22,15.08,3.69,19.12,1.36,3.75,4.8,12.1,12.32,20.51,1.76,1.97,8.6,9.37,20.13,15.1,2.16,1.07,11.27,5.41,23.83,6.93,22.25,2.69,42.77-7.27,47.11-9.46Z"/>
  <g>
    <path class="cls-72" d="M529.58,645.29h-28.41c2.49-11.25,4.98-22.5,7.47-33.76h14.38c2.19,11.25,4.37,22.5,6.56,33.76Z"/>
    <path class="cls-72" d="M521.63,603.74h-12.52c1.1-4.96,2.19-9.91,3.29-14.87h6.33c.96,4.96,1.93,9.91,2.89,14.87Z"/>
  </g>
  <g>
    <path class="cls-105" d="M350.65,403.88c2.18-1.99,5.4-2.53,8.37-1.51.33-.81,1.21-2.62,3.17-3.99.29-.21,3.42-2.31,7.3-1.34,3.31.83,5.91,3.58,6.77,7.08,4.27.47,6.86,3.95,6.37,6.75-.33,1.86-2.01,3.43-4.14,4.14h-27.19c-.7-.33-1.8-.98-2.54-2.18-1.67-2.73-.52-6.74,1.9-8.95Z"/>
    <path class="cls-105" d="M368.13,378.72c1.12-1.02,2.77-1.3,4.3-.78.17-.42.62-1.34,1.63-2.05.15-.11,1.76-1.19,3.75-.69,1.7.42,3.03,1.84,3.47,3.63,2.19.24,3.52,2.03,3.27,3.47-.17.96-1.03,1.76-2.13,2.12h-13.96c-.36-.17-.93-.5-1.31-1.12-.86-1.4-.27-3.46.97-4.59Z"/>
  </g>
  <g>
    <path class="cls-105" d="M680.91,430.81c-2.18-1.99-5.4-2.53-8.37-1.51-.33-.81-1.21-2.62-3.17-3.99-.29-.21-3.42-2.31-7.3-1.34-3.31.83-5.91,3.58-6.77,7.08-4.27.47-6.86,3.95-6.37,6.75.33,1.86,2.01,3.43,4.14,4.14h27.19c.7-.33,1.8-.98,2.54-2.18,1.67-2.73.52-6.74-1.9-8.95Z"/>
    <path class="cls-105" d="M663.42,405.65c-1.12-1.02-2.77-1.3-4.3-.78-.17-.42-.62-1.34-1.63-2.05-.15-.11-1.76-1.19-3.75-.69-1.7.42-3.03,1.84-3.47,3.63-2.19.24-3.52,2.03-3.27,3.47.17.96,1.03,1.76,2.13,2.12h13.96c.36-.17.93-.5,1.31-1.12.86-1.4.27-3.46-.97-4.59Z"/>
  </g>
  <text class="cls-54" transform="translate(320.5 767.88)"><tspan class="cls-115" x="0" y="0">Y</tspan><tspan class="cls-134" x="39.59" y="0">A</tspan><tspan x="88.43" y="0">JUR</tspan><tspan class="cls-113" x="217.51" y="0">V</tspan><tspan x="263.22" y="0">E</tspan><tspan class="cls-122" x="305.19" y="0">D</tspan><tspan x="356.22" y="0">A</tspan></text>
  <text class="cls-53" transform="translate(321.71 798.8)"><tspan class="cls-112" x="0" y="0">C</tspan><tspan class="cls-68" x="16.37" y="0">ON</tspan><tspan class="cls-121" x="54.05" y="0">S</tspan><tspan x="68.37" y="0">TRU</tspan><tspan class="cls-124" x="117.19" y="0">C</tspan><tspan x="133.75" y="0">TION </tspan><tspan class="cls-123" x="199.45" y="0">P</tspan><tspan class="cls-81" x="215.91" y="0">R</tspan><tspan class="cls-120" x="232.67" y="0">I</tspan><tspan class="cls-117" x="240.06" y="0">V</tspan><tspan class="cls-116" x="256.21" y="0">A</tspan><tspan x="272.88" y="0">TE LIMITED</tspan></text>
  <g>
    <circle class="cls-41" cx="617.79" cy="575.56" r="5.18"/>
    <circle class="cls-41" cx="642.88" cy="573" r="7.19"/>
    <polygon class="cls-41" points="631.78 549.29 629.11 559.49 646.84 559.49 646.06 549.29 631.78 549.29"/>
    <path class="cls-34" d="M645.2,572.67c0,1.27-1.04,2.31-2.31,2.31s-2.31-1.04-2.31-2.31,1.04-2.31,2.31-2.31,2.31,1.04,2.31,2.31Z"/>
    <g>
      <path class="cls-30" d="M622.04,551.43v6.55h-3.07v-6.46c.19-.98,2.17-1.13,2.76-.56.05.05.3.44.3.47Z"/>
      <g>
        <path class="cls-33" d="M647.56,550.12c-.36-1.46-1.49-2.35-2.94-2.61h-11.83c-1.09.13-2.26.92-2.72,1.92l-2.43,9.34h-12.22c-1.15.1-1.59.5-2.23,1.39-1.35,1.9-1.73,4.32-1.61,6.61.01.26.16,1.84.32,1.85,4.87-4.19,12.32-2.23,14.57,3.76.15.42.18.93.43,1.29h4.02c-.95-9.51,9.54-16.38,17.88-11.56l-1.21-12.01ZM638.11,558.7h-7.76l2.01-8.06c0-.18.44-.61.56-.61h5.19v8.67ZM640.46,558.7v-8.67h4.11c.16,0,.68.56.65.79l.84,7.88h-5.6Z"/>
        <path class="cls-32" d="M642.89,561.56c-6.14,0-11.11,4.98-11.11,11.11s4.98,11.11,11.11,11.11,11.12-4.98,11.12-11.11-4.98-11.11-11.12-11.11ZM642.89,578.94c-3.47,0-6.28-2.82-6.28-6.28s2.82-6.28,6.28-6.28,6.29,2.81,6.29,6.28-2.82,6.28-6.29,6.28Z"/>
        <path class="cls-36" d="M617.79,567.38c-4.52,0-8.18,3.66-8.18,8.18s3.66,8.18,8.18,8.18,8.18-3.66,8.18-8.18-3.66-8.18-8.18-8.18ZM617.75,579.47c-2.18,0-3.94-1.76-3.94-3.94s1.76-3.94,3.94-3.94,3.94,1.76,3.94,3.94-1.76,3.94-3.94,3.94Z"/>
      </g>
    </g>
    <path class="cls-31" d="M618.75,575.53c0,.56-.45,1.01-1.01,1.01s-1.02-.45-1.02-1.01.45-1.01,1.02-1.01,1.01.45,1.01,1.01Z"/>
  </g>
  <g>
    <polygon class="cls-41" points="586.09 597.39 583.11 602.91 583.62 610.41 586.28 610.54 586.93 612.21 588.57 612.08 590.39 610.83 600.15 609.64 601.21 610.42 602.28 611.01 603.8 610.89 604.82 609.03 606.18 608.83 606.42 598.17 595.87 597.76 595.97 604.63 595.56 607.14 593.42 606.34 592.95 597.65 586.09 597.39"/>
    <g id="zChBjm.tif">
      <path class="cls-35" d="M581.8,603.66l.09,6.48c.45,1.6,1.94,1.61,3.5,1.44.44.99,1.37,1.55,2.5,1.68l.89-.08c.89-.27,1.63-.76,2.09-1.53.1-.16.14-.48.31-.52l9.08-.66c.2-.03.18.18.26.31.46.72.99,1.09,1.83,1.22.22-.04.48-.01.7-.06.78-.17,1.59-.97,1.82-1.77,1.07-.03,2.13-.21,2.35-1.53l-.16-11.96c-.35-1.24-1.74-.78-1.47.45l-3.5-.17c.22-1.66-1.9-1.79-1.63-.08l-3.84-.18c.09-.66-.21-1.38-.99-1.37-.31,0-.81.34-.81.65l.12,8.64-.92.02-.1-7.37c0-.27-.54-.75-.85-.74-2.19.04-4.73-.41-7.07-.34-.47.01-.72.18-.94.54l-3.25,6.92ZM605.61,599.57l-3.5-.09v-.84s3.49.11,3.49.11v.81ZM605.65,602h-3.5s-.01-.84-.01-.84l3.5.04v.81ZM602.19,604.49v-.83s3.48-.04,3.48-.04v.81s-3.48.07-3.48.07ZM601.85,609.53c0-.46.35-.86.79-.89s.8.33.8.78-.34.86-.78.89-.81-.32-.82-.79ZM596.71,603.72l3.84-.05v.85s-3.83.08-3.83.08v-.88ZM596.68,601.09l3.84.04v.85s-3.83-.01-3.83-.01v-.88ZM596.64,598.46l3.84.13v.85s-3.83-.1-3.83-.1v-.88ZM587.26,610.47c0-.52.45-.98,1.02-1.01s1.02.36,1.02.88-.44.97-1,1.01-1.03-.35-1.04-.88ZM584.53,602.9l2.18-4.76,5.34.17.06,4.55-7.58.04Z"/>
    </g>
  </g>
  <g>
    <path class="cls-83" d="M576.06,528.91c-.32-.04-.88-.15-1.46-.5-.09-.05-.7-.43-1.1-1.1-.79-1.31-.19-2.73.24-3.74.13-.3.52-1.18,1.45-1.95.52-.43.75-.45.82-.45,1.09,0,1.99,2.43,2.03,2.54.03,0,.09.01.15,0,.09-.02.18-.05.21-.12.08-.16.25-.72.5-.84.25-.12.39-.24.43-.6.05-.36.75-1.05,1.88-.52.54.47.33.81.33.81,0,0,.76.5.82.65.06.14-.04.44.11.49.15.05.67.56.78.77,0,0,.24.9-.11,1.19s.11.35.11.35c0,0,1.16.26,1.11,1.45s-1.19,1.21-1.19,1.21l-.54.1s-.73-.42-.85-.69c-.12-.27-.18-1.11-.18-1.11l-1-.19s-.64.18-1.04.26c-.41.08-.83-.13-.83-.13-.1.27-.35.79-.92,1.27-.68.58-1.44.78-1.78.85Z"/>
    <path class="cls-76" d="M584.47,526.82c-.15-.54-.62-1.03-1.24-1.1.06-.1.14-.18.18-.28.06-.12.19-.43,0-.49-.19-.06-.21.23-.26.34-.15.36-.37.42-.69.59-.17.09-.14.21-.2.36-.27.63-1.12.7-1.55.17v-.61s.69-.62.69-.62c.11-.12-.01-.31-.19-.23-.15.07-.34.35-.5.43v-.96s-.09-.13-.14-.14c-.05-.01-.18.05-.18.08v.73s-.04-.02-.07-.03c-.1-.07-.4-.4-.47-.42-.17-.05-.28.08-.2.22l.74.67v.9c-.3.35-.86.47-1.29.23-.09-.05-.24-.17-.27-.26-.03-.13-.01-.38-.03-.53-.08-.68-.27-1.35-.49-2.01.15-.07.32-.11.35-.29.04-.21-.04-.3.11-.51.19-.27.55-.22.67-.4.07-.1.03-.17.05-.27.22-1.1,1.84-.99,2.06.08.01.05,0,.11,0,.17.05.28.34.25.53.41.28.22.19.38.23.65.03.19.23.23.38.32.27.17.3.28.45.51.1.16.33.07.28-.1-.09-.31-.48-.64-.8-.76-.02-.14,0-.25-.04-.39-.1-.31-.39-.55-.72-.64-.05-1.61-2.65-1.78-2.71-.13-.45.08-.77.38-.83.79-.02.11.06.26-.12.27-.24-.55-.47-1.12-.85-1.63-1.13-1.52-2.23-.87-2.99.36-.09.14-.34.56-.37.69-.03.13.12.24.27.19.11-.04.27-.43.34-.54.52-.88,1.31-1.92,2.36-.67.8.95,1.49,3.1,1.53,4.23.03.92-.51,1.9-1.52,2.32-.16.07-.52.18-.69.18-.03,0-.04,0-.05-.03v-1.8l.76-.65c.05-.05.06-.11.03-.17-.16-.32-.61.32-.79.36v-.68s-.08-.07-.1-.08c-.11-.04-.26.04-.26.14v1.28c-.15-.07-.42-.4-.56-.44-.18-.05-.33.13-.2.25l.75.63v1.2c-1.25-.07-2.19-.97-2.36-2.01-.12-.75.16-1.71.38-2.44.04-.13.22-.51.18-.6-.05-.12-.24-.14-.33-.05-.06.06-.19.48-.23.59-.28.83-.55,1.92-.33,2.78.28,1.1,1.34,1.99,2.68,2.04v2.23c.11,0,.22.01.33,0,0-.02.02-.04.03-.06v-2.19c1.32-.13,2.33-1.09,2.53-2.17.48.36,1.14.34,1.63.02v4.07s.06.02.09.02c.05.01.1.02.15.03.02-.03.05-.05.08-.08v-4.03c.13.05.24.11.37.15.13.04.27.04.4.07.02.12,0,.25,0,.37.06.7.61,1.38,1.4,1.41v1.9c.1,0,.2-.01.3-.02v-1.89c.42-.05.77-.29,1.01-.6,0,0,0,0,0,0,.09-.12.2-.3.27-.54.11-.39.04-.72,0-.88ZM583.19,528.56v-.4s.53-.43.52-.57c0-.03-.05-.1-.08-.11-.18-.07-.31.18-.44.26v-.46c0-.12-.3-.12-.3,0v1.29c-.78-.08-1.21-.88-1.05-1.56.39-.17.68-.49.78-.87.13-.04.23-.14.36-.15.38-.03.77.19.98.46.56.72.24,1.93-.77,2.12Z"/>
  </g>
  <g>
    <path class="cls-84" d="M593.94,526.18c-.56-.08-1.57-.29-2.59-.91-.15-.1-1.23-.77-1.94-1.96-1.37-2.31-.33-4.82.43-6.62.22-.54.92-2.09,2.56-3.49.92-.79,1.33-.82,1.46-.82,1.94-.05,3.57,4.31,3.64,4.5.06.01.15.02.27,0,.16-.03.32-.1.38-.22.15-.29.45-1.31.91-1.52.45-.22.7-.43.79-1.09.08-.66,1.37-1.92,3.44-1,1,.84.62,1.47.62,1.47,0,0,1.41.9,1.52,1.16.11.26-.07.81.21.9.28.09,1.26,1.02,1.46,1.39,0,0,.45,1.64-.21,2.18s.21.63.21.63c0,0,2.19.47,2.09,2.66-.1,2.19-2.23,2.21-2.23,2.21l-1.01.17s-1.36-.78-1.58-1.26c-.22-.49-.33-2.02-.33-2.02l-1.84-.34s-1.17.33-1.91.47c-.74.14-1.51-.24-1.51-.24-.19.48-.64,1.41-1.66,2.27-1.22,1.02-2.58,1.37-3.18,1.49Z"/>
    <path class="cls-76" d="M609.36,522.48c-.28-1-1.16-1.89-2.33-2.02.11-.18.25-.33.34-.52.1-.22.35-.79,0-.9-.36-.1-.39.42-.48.62-.28.65-.69.77-1.29,1.09-.32.17-.26.38-.38.66-.5,1.15-2.08,1.27-2.87.31v-1.11s1.27-1.13,1.27-1.13c.2-.23-.02-.56-.34-.42-.27.12-.63.64-.92.79v-1.73c0-.08-.17-.24-.27-.26-.1-.02-.33.09-.33.15v1.32c-.07.01-.08-.03-.12-.05-.18-.12-.74-.73-.86-.76-.31-.09-.52.15-.37.4l1.35,1.21v1.62c-.54.64-1.57.85-2.35.41-.16-.09-.44-.31-.48-.47-.06-.23-.02-.69-.05-.95-.14-1.23-.49-2.43-.89-3.62.27-.14.58-.2.64-.52.07-.38-.07-.54.2-.93.35-.5.99-.41,1.22-.74.12-.18.06-.31.09-.48.4-1.99,3.38-1.85,3.78.09.02.1,0,.2.01.3.1.51.63.45.99.73.51.4.34.69.43,1.17.07.35.44.41.71.58.5.3.56.51.84.93.19.29.61.12.52-.19-.16-.56-.91-1.16-1.49-1.38-.03-.26,0-.46-.08-.72-.19-.56-.72-.99-1.34-1.16-.1-2.93-4.86-3.15-4.98-.16-.81.16-1.4.71-1.5,1.44-.03.2.11.47-.22.48-.43-.98-.85-2-1.53-2.9-2.02-2.68-3.97-1.48-5.32.71-.15.24-.6.99-.65,1.22-.05.24.21.42.47.33.2-.07.47-.77.59-.97.93-1.58,2.32-3.46,4.2-1.25,1.43,1.69,2.68,5.54,2.75,7.56.06,1.65-.92,3.41-2.73,4.14-.28.11-.93.32-1.23.32-.05,0-.07-.01-.1-.05v-3.21l1.36-1.17c.1-.09.11-.19.05-.3-.29-.57-1.09.58-1.41.65v-1.22s-.15-.12-.18-.14c-.2-.08-.46.07-.46.24v2.28c-.26-.12-.75-.72-.99-.78-.32-.09-.58.22-.35.44l1.34,1.13v2.14c-2.22-.14-3.86-1.75-4.15-3.59-.22-1.33.27-3.02.66-4.31.07-.22.38-.91.31-1.07-.09-.2-.42-.24-.57-.08-.11.12-.33.84-.39,1.04-.48,1.47-.97,3.39-.58,4.91.5,1.95,2.35,3.54,4.73,3.65v3.91c.2-.01.4-.02.6-.03.02-1.3.03-2.6.05-3.9,2.36-.21,4.18-1.92,4.54-3.85.87.66,2.07.61,2.97.05v7.37c.2,0,.39-.02.59-.03v-7.31c.23.09.44.21.68.28.25.07.5.08.74.13.04.22,0,.45.02.68.11,1.27,1.14,2.51,2.6,2.59,0,1.15-.02,2.29-.03,3.44.2-.01.4-.02.59-.03v-3.42c.78-.08,1.45-.51,1.9-1.08,0,0,0,0,0,0,.16-.22.38-.55.5-.99.21-.72.08-1.32,0-1.61ZM606.95,525.65v-.73c0-.07.99-.78.97-1.04,0-.06-.09-.18-.15-.2-.33-.14-.58.33-.82.47v-.84c0-.22-.56-.22-.56,0v2.35c-1.46-.16-2.26-1.62-1.96-2.86.73-.3,1.26-.89,1.45-1.59.24-.07.43-.25.68-.28.71-.06,1.44.34,1.84.84,1.06,1.33.45,3.54-1.44,3.88Z"/>
  </g>
  <path class="cls-79" d="M389.86,568.6l-.19-6.93,7.99-6.74,8.48,6.9,10.33-10.53c3.42,2.64,6.81,5.26,10.18,7.86,0,3.17,0,6.32,0,9.44-12.27,0-24.53,0-36.79,0Z"/>
  <g>
    <path class="cls-73" d="M387.45,563.51h2.28c2.61-2.35,5.24-4.72,7.88-7.11l8.12,6.71,10.82-10.16c3.45,2.64,6.88,5.26,10.28,7.86.97.05,1.94.11,2.9.16-4.4-3.41-8.85-6.86-13.34-10.34-3.59,3.39-7.14,6.75-10.66,10.07-2.65-2.19-5.31-4.39-7.99-6.6-3.46,3.16-6.89,6.29-10.29,9.4Z"/>
    <polygon class="cls-73" points="396.02 568.6 395.94 564.24 399.34 564.24 399.41 568.6 396.02 568.6"/>
    <polygon class="cls-73" points="414.2 568.6 414.24 560.71 420.41 560.7 420.3 568.6 414.2 568.6"/>
    <line class="cls-4" x1="397.79" y1="555.4" x2="408.85" y2="564.55"/>
  </g>
  <g>
    <path class="cls-79" d="M430.72,587.94l-.19-10.28,11.56-9.89,11.89,10.07,14.26-15.09c4.63,3.8,9.19,7.54,13.7,11.24,0,4.5,0,8.96.01,13.4-16.59.18-33.66.37-51.23.56Z"/>
    <path class="cls-73" d="M427.26,580.39l3.32-.02c3.81-3.49,7.61-6.98,11.41-10.46l11.4,9.78c4.99-4.87,9.97-9.74,14.95-14.6,4.67,3.79,9.28,7.54,13.82,11.23,1.29.07,2.57.15,3.85.22-5.86-4.83-11.82-9.75-17.88-14.76-4.9,4.8-9.81,9.6-14.72,14.41-3.7-3.18-7.43-6.39-11.21-9.64-4.97,4.6-9.95,9.21-14.93,13.82Z"/>
    <polygon class="cls-73" points="439.61 587.84 439.53 581.42 444.38 581.4 444.44 587.79 439.61 587.84"/>
    <polygon class="cls-73" points="465.1 587.57 465.18 576.2 473.56 576.19 473.42 587.48 465.1 587.57"/>
    <line class="cls-4" x1="441.78" y1="568.45" x2="457.73" y2="582.38"/>
  </g>
  <circle class="cls-40" cx="362.04" cy="300.68" r="18.58"/>
  <circle class="cls-40" cx="309.02" cy="368.91" r="18.58"/>
  <circle class="cls-40" cx="282.03" cy="451.97" r="18.58"/>
  <circle class="cls-40" cx="741.97" cy="451.97" r="18.58"/>
  <circle class="cls-40" cx="717.49" cy="368.91" r="18.58"/>
  <circle class="cls-40" cx="664.8" cy="300.68" r="18.58"/>
  <g id="WvNFHn.tif">
    <g>
      <path class="cls-72" d="M358.65,307.1c.2,2.42-2.09,4.22-4.39,3.5l2.37-2.39-.42-1.62-.12-.09-1.58-.41-2.42,2.34c-.49-1.73.36-3.56,2.07-4.17.83-.3,1.62-.23,2.45.02l3.5-3.5,1.8,1.85-3.45,3.46c-.04.1.18.81.19,1.02Z"/>
      <g>
        <path class="cls-72" d="M372.48,307.91v.39c-.08.16-.17.3-.28.44-.36.43-1.31,1.41-1.74,1.74-.41.32-.83.32-1.22-.04l-5.84-5.85c-.2-.28-.27-.58-.12-.9.06-.13.32-.34.27-.42-2.04-2.02-4-4.11-6.03-6.15-.63-.42-1.5.38-1.38,1.08.07.4.71.48.53,1.03-.03.1-1.22,1.3-1.37,1.41-.21.16-.33.21-.57.05l-3.06-3.07c-.1-.13-.1-.3,0-.43l1.51-1.48c.47-.19.71.58,1.1.65.65.12,1.38-.59,1.21-1.25-.03-.13-.18-.26-.25-.41-.19-.43-.15-.85.14-1.22.44-.56,1.88-1.94,2.5-2.29.22-.13.47-.23.71-.33l1.05-.23h.44l.97.19c.93.3,1.81.82,2.47,1.55-.76.11-1.55-.02-2.31.1-1.59.25-3.11,1.67-2.01,3.28l5.9,6.05c.33-.38.81-.47,1.22-.17l5.96,5.95.19.35Z"/>
        <path class="cls-72" d="M368.42,297.39c-.37-.02-.71-.19-1.06-.2l-2.94,2.93-1.8-1.84,2.93-2.94c.03-.07-.17-.64-.19-.81-.36-2.46,1.98-4.42,4.34-3.71l-2.33,2.39.4,1.64s.04.07.09.08c.42.2,1.16.25,1.62.42l2.39-2.37c.71,2.28-1.07,4.56-3.46,4.39Z"/>
      </g>
    </g>
  </g>
  <g id="ChUB7J.tif">
    <g>
      <path class="cls-72" d="M669.38,305.02c-.23,1.09-.77,2.03-1.74,2.6-.66.38-1.4.54-2.15.65-.09.13.02,2.78-.02,3.23-.04.38-.14.6-.49.75h-.32c-.34-.13-.45-.36-.49-.71v-3.27c-1.72-.2-3.13-.86-3.75-2.56-.15-.43-.41-1.4-.28-1.82.19-.58,1.33-.25,1.77-.13,1.9.54,2.61,1.84,2.84,3.71.01.08-.02.08.09.07.07-1.25.59-2.54,1.66-3.25.56-.37,1.8-.8,2.47-.73.74.07.51.95.41,1.45Z"/>
      <g>
        <path class="cls-72" d="M669.49,299.84c-.08.96-.59,2.19-1.33,2.83-1.67,1.44-5.58,1.4-7.06-.34-.53-.62-1.09-2.08-.99-2.89.09-.73,1.25-.41,1.73-.28,1.84.49,2.81,1.92,2.92,3.79.11,0,.08.01.09-.07.25-1.98,1.08-3.29,3.11-3.76.79-.18,1.63-.4,1.53.73Z"/>
        <g>
          <path class="cls-72" d="M669.49,295.19c-.18,3.32-3.31,4.37-6.18,3.75-1.8-.38-2.88-1.58-3.15-3.4-.17-1.17.15-1.29,1.22-1.09,2.08.38,3.26,1.82,3.37,3.92.09-.02.08-.09.09-.16.4-2.11,1.11-3.35,3.37-3.76.73-.14,1.33-.23,1.27.73Z"/>
          <path class="cls-72" d="M665.5,294.75c-.38.5-.72.79-1.24.21-1.21-1.36-1.46-3.09-.58-4.69.16-.28.67-1.09.97-1.15.52-.11.95.62,1.18,1.01.95,1.61.79,3.15-.34,4.62Z"/>
        </g>
      </g>
    </g>
  </g>
  <g id="SyNfjZ.tif">
    <g>
      <path class="cls-72" d="M712.83,369.97l-.67,3.75h-5.86c-.35,0-.61-.27-.57-.62l.93-3.13h6.18Z"/>
      <g>
        <path class="cls-72" d="M726.91,364.66h-5.63l-.68-3.75h5.08c.07,0,.33.26.35.35l.88,3.4Z"/>
        <path class="cls-72" d="M714.39,360.91l-.68,3.75h-5.63l.88-3.4c.02-.09.28-.35.35-.35h5.08Z"/>
      </g>
      <polygon class="cls-72" points="713.58 365.71 713.03 368.91 706.87 368.91 707.8 365.71 713.58 365.71"/>
      <g>
        <path class="cls-72" d="M729.26,373.1c.04.35-.21.62-.57.62h-5.87l-.67-3.75h6.18l.93,3.13Z"/>
        <polygon class="cls-72" points="728.11 368.91 721.95 368.91 721.4 365.71 727.18 365.71 728.11 368.91"/>
      </g>
      <g>
        <path class="cls-72" d="M720.09,376.1c.18.34,0,.67-.3.82h-4.6c-.31-.15-.47-.48-.3-.82.03-.05.22-.23.27-.23h1.78v-2.15h-3.61l.61-3.75h7.03s.67,3.75.67,3.75h-3.61v2.15h1.78s.24.18.27.23Z"/>
        <g>
          <polygon class="cls-72" points="720.85 368.91 714.13 368.91 714.66 365.71 720.34 365.72 720.85 368.91"/>
          <polygon class="cls-72" points="720.14 364.66 714.84 364.66 715.46 360.91 719.54 360.91 720.14 364.66"/>
        </g>
      </g>
    </g>
  </g>
  <g id="CVvaZX.tif">
    <g>
      <polygon class="cls-72" points="750.95 451.37 750.95 451.41 749.71 452.99 741.95 447.02 734.21 452.99 732.98 451.37 741.95 444.46 745.79 447.37 745.79 446.19 745.84 446.14 748.39 446.14 748.39 449.39 750.95 451.37"/>
      <polygon class="cls-72" points="748.14 453.11 748.14 459.49 743.4 459.49 743.4 454.82 740.73 454.82 740.73 459.49 735.78 459.49 735.78 453.11 741.95 448.36 748.14 453.11"/>
    </g>
  </g>
  <g id="tDCWMx.tif">
    <g>
      <path class="cls-72" d="M310.48,381.63c-2.22,1.35-4.96-.23-5.01-2.78h1.44c.04,1.45,1.6,2.32,2.85,1.53,1.1-.69,1.09-2.4-.02-3.09-.52-.32-1.08-.3-1.68-.32v-5.24h1.44v3.87c.83.3,1.55.72,2.03,1.48.96,1.52.49,3.61-1.05,4.54Z"/>
      <g>
        <polygon class="cls-72" points="313.78 359.38 304.27 359.38 305.33 357.51 312.72 357.51 313.78 359.38"/>
        <polygon class="cls-72" points="313.78 368.42 312.69 370.29 305.44 370.3 305.28 370.22 304.27 368.42 313.78 368.42"/>
        <path class="cls-72" d="M313.78,360.83l-3.51,6.15h-2.35c.05-.19.18-.38.28-.56,1.06-1.87,2.17-3.73,3.25-5.59h2.33Z"/>
        <polygon class="cls-72" points="309.74 360.83 306.24 366.98 303.89 366.98 307.42 360.83 309.74 360.83"/>
        <polygon class="cls-72" points="316.37 363.92 314.62 366.98 311.95 366.98 315.05 361.6 316.33 363.77 316.37 363.92"/>
        <path class="cls-72" d="M305.71,360.83l-2.9,5.1c-.36-.68-.83-1.33-1.13-2.04l1.75-3.06h2.28Z"/>
      </g>
    </g>
  </g>
  <g id="KKHlg6.tif">
    <path class="cls-72" d="M290.58,461.4v-15.35h-2v15.35h-1.25v-20.11h-.08l-10.51,2.96v4.25h4.5v12.89h-1.25v-11.64h-5.19l-.06.06v11.58h-2.54v1.25h19.69v-1.25h-1.29ZM277.99,458.85h-1.25v-2.5h1.25v2.5ZM277.99,454.27h-1.25v-2.5h1.25v2.5ZM284.91,458.85h-1.25v-2.5h1.25v2.5ZM284.91,454.27h-1.25v-2.5h1.25v2.5ZM284.91,449.68h-1.25v-2.54h1.25v2.54Z"/>
  </g>
  <text class="cls-57"><tspan x="316.94" y="836.89">   </tspan></text>
</svg>